<svg width="129" height="128" viewBox="0 0 129 128" fill="none" xmlns="http://www.w3.org/2000/svg">
<path d="M50.3552 103.461L47.7542 111.17C47.6527 111.472 47.4916 111.751 47.2804 111.99C47.0694 112.229 46.8125 112.422 46.5251 112.56C46.0966 112.774 45.6143 112.855 45.1393 112.794C44.6645 112.733 44.2185 112.532 43.8582 112.217C43.4979 111.901 43.2395 111.486 43.1159 111.023C42.9924 110.561 43.0092 110.072 43.1642 109.619L45.8303 101.683C45.861 101.599 45.899 101.518 45.9437 101.441C47.3544 102.238 48.8302 102.913 50.3552 103.461Z" stroke="#121211" stroke-width="3.825" stroke-linecap="round" stroke-linejoin="round"/>
<path d="M89.9367 104.705C89.6896 104.904 89.4056 105.052 89.1013 105.141C88.7969 105.23 88.4779 105.258 88.1627 105.224C87.8474 105.189 87.5421 105.093 87.2641 104.94C86.9862 104.788 86.741 104.582 86.5426 104.334L81.4834 98.0142C82.7305 96.9828 83.8877 95.8474 84.9425 94.6201C84.999 94.6599 85.048 94.709 85.0878 94.7655L90.3242 101.295C90.5233 101.544 90.6713 101.83 90.7595 102.136C90.8479 102.443 90.8748 102.764 90.8387 103.081C90.8028 103.397 90.7045 103.704 90.5497 103.983C90.3949 104.262 90.1866 104.507 89.9367 104.705Z" stroke="#121211" stroke-width="3.825" stroke-linecap="round" stroke-linejoin="round"/>
<path d="M87.675 56.7698C85.4376 53.2729 82.5314 50.2526 79.1232 47.8825C75.715 45.5122 71.872 43.8388 67.8151 42.9584C63.758 42.078 59.5671 42.008 55.483 42.7522C51.3989 43.4966 47.5021 45.0405 44.0167 47.2955C40.5311 49.5504 37.5254 52.4718 35.1725 55.892C32.8195 59.3121 31.1654 63.1635 30.3056 67.2248C29.4456 71.2861 29.3966 75.4773 30.1615 79.5577C30.9264 83.6379 32.49 87.5268 34.7625 91.001C37.5619 95.3592 41.4065 98.9485 45.9468 101.442C47.3574 102.239 48.8332 102.914 50.3583 103.462C54.9429 105.152 59.8586 105.75 64.7149 105.209C69.5712 104.668 74.2344 103.001 78.3343 100.343C79.4294 99.6296 80.4814 98.8522 81.4848 98.0148C82.7319 96.9835 83.8891 95.848 84.9439 94.6208C89.4499 89.4651 92.1538 82.9819 92.6466 76.1525C93.1392 69.323 91.394 62.519 87.675 56.7698ZM61.1843 95.8014C56.8689 95.8012 52.6506 94.5212 49.0626 92.1236C45.4746 89.7259 42.6783 86.3181 41.0271 82.3312C39.3758 78.3443 38.9438 73.9572 39.7858 69.7249C40.628 65.4924 42.7061 61.6048 45.7576 58.5534C48.8091 55.5021 52.6969 53.4241 56.9294 52.5824C61.1619 51.7406 65.5489 52.1727 69.5357 53.8242C73.5225 55.4757 76.9302 58.2723 79.3275 61.8604C81.7251 65.4485 83.0046 69.667 83.0046 73.9823C83.0016 79.7684 80.7016 85.3166 76.6101 89.4078C72.5187 93.499 66.9704 95.7986 61.1843 95.8014Z" stroke="#121211" stroke-width="3.825" stroke-linecap="round" stroke-linejoin="round"/>
<path d="M61.1872 95.8012C73.2376 95.8012 83.0063 86.0326 83.0063 73.9822C83.0063 61.9319 73.2376 52.1631 61.1872 52.1631C49.137 52.1631 39.3682 61.9319 39.3682 73.9822C39.3682 86.0326 49.137 95.8012 61.1872 95.8012Z" stroke="#121211" stroke-width="3.825" stroke-linecap="round" stroke-linejoin="round"/>
<path d="M61.1872 95.8012C73.2376 95.8012 83.0063 86.0326 83.0063 73.9822C83.0063 61.9319 73.2376 52.1631 61.1872 52.1631C49.137 52.1631 39.3682 61.9319 39.3682 73.9822C39.3682 86.0326 49.137 95.8012 61.1872 95.8012Z" stroke="#121211" stroke-width="3.825" stroke-linecap="round" stroke-linejoin="round"/>
<path d="M24.068 62.6741C23.759 62.9675 23.3953 63.197 22.9974 63.3493C22.5996 63.5018 22.1755 63.5741 21.7496 63.5623C21.3238 63.5504 20.9044 63.4547 20.5157 63.2804C20.1269 63.1061 19.7765 62.8567 19.4843 62.5466C17.017 59.968 15.5199 56.6138 15.2482 53.0552C14.9765 49.4967 15.9469 45.9541 17.9941 43.0308C20.0414 40.1075 23.0388 37.9844 26.4758 37.0231C29.9128 36.062 33.5768 36.3221 36.8435 37.7593C37.2346 37.9279 37.5886 38.1722 37.885 38.478C38.1815 38.7838 38.4147 39.1451 38.571 39.5414C38.7274 39.9375 38.8039 40.3607 38.7964 40.7866C38.7887 41.2124 38.6969 41.6326 38.5265 42.0229C36.6989 45.8288 34.5221 49.4568 32.024 52.8604C29.6815 56.3709 27.0181 59.6562 24.068 62.6741Z" stroke="#121211" stroke-width="3.825" stroke-linecap="round" stroke-linejoin="round"/>
<path d="M92.205 50.6573C92.5956 50.8274 93.0158 50.9188 93.4418 50.9262C93.8676 50.9336 94.2909 50.8568 94.6871 50.7004C95.0833 50.5439 95.4447 50.3107 95.7507 50.0144C96.0566 49.718 96.301 49.364 96.4699 48.973C97.9066 45.7058 98.1661 42.0416 97.2039 38.6046C96.2419 35.1676 94.1179 32.1704 91.194 30.1238C88.2699 28.0772 84.7267 27.1078 81.168 27.3806C77.6094 27.6535 74.2553 29.1517 71.6775 31.6202C71.3676 31.9125 71.1183 32.263 70.9442 32.6517C70.77 33.0405 70.6742 33.4597 70.6624 33.8855C70.6505 34.3114 70.7228 34.7353 70.8752 35.1331C71.0274 35.5311 71.2568 35.8948 71.55 36.2039C74.5699 39.154 77.8564 41.8182 81.3675 44.1624C84.7714 46.6579 88.3994 48.8321 92.205 50.6573Z" stroke="#121211" stroke-width="3.825" stroke-linecap="round" stroke-linejoin="round"/>
<path d="M26.9219 89.0444C27.9122 93.1526 30.2934 96.7916 33.6615 99.3439" stroke="#121211" stroke-width="3.825" stroke-linecap="round" stroke-linejoin="round"/>
<path d="M24.8604 95.9736C27.0535 99.7076 30.4553 102.581 34.5032 104.12" stroke="#121211" stroke-width="3.825" stroke-linecap="round" stroke-linejoin="round"/>
<path d="M98.6465 30.4434C101.815 32.0613 103.84 35.1838 103.795 41.0259" stroke="#121211" stroke-width="3.825" stroke-linecap="round" stroke-linejoin="round"/>
<path d="M99.4824 25.8823C102.973 26.5721 105.775 29.0214 107.329 34.6505" stroke="#121211" stroke-width="3.825" stroke-linecap="round" stroke-linejoin="round"/>
<path d="M63.565 74.4602C63.6269 74.1638 63.6322 73.8584 63.5803 73.5601L61.0596 59.2291C60.948 58.5959 60.5895 58.0329 60.0628 57.6641C59.5362 57.2953 58.8846 57.1508 58.2514 57.2624C57.6183 57.3739 57.0553 57.7325 56.6865 58.2592C56.3176 58.7857 56.1732 59.4374 56.2847 60.0706L58.6371 73.4071L54.5788 79.2045C54.2384 79.7309 54.1152 80.3688 54.2353 80.9841C54.3554 81.5994 54.7095 82.1443 55.2229 82.5039C55.7364 82.8637 56.3693 83.0104 56.9887 82.9132C57.6079 82.8159 58.1655 82.4824 58.544 81.9827L63.1787 75.3629C63.3623 75.1012 63.4923 74.8056 63.5612 74.4934C63.5624 74.4793 63.5624 74.4679 63.565 74.4602Z" fill="white"/>
<path d="M105.713 82.1101V75.6445" stroke="#121211" stroke-width="3.825" stroke-linecap="round" stroke-linejoin="round"/>
<path d="M102.481 78.8779H108.946" stroke="#121211" stroke-width="3.825" stroke-linecap="round" stroke-linejoin="round"/>
<path d="M68.5391 19.0773V15.8452" stroke="#121211" stroke-width="3.825" stroke-linecap="round" stroke-linejoin="round"/>
<path d="M66.9258 17.4629H70.1592" stroke="#121211" stroke-width="3.825" stroke-linecap="round" stroke-linejoin="round"/>
<path d="M105.713 61.0988V57.8667" stroke="#121211" stroke-width="3.825" stroke-linecap="round" stroke-linejoin="round"/>
<path d="M104.095 59.4829H107.327" stroke="#121211" stroke-width="3.825" stroke-linecap="round" stroke-linejoin="round"/>
<path d="M8.74414 51.402V48.1699" stroke="#121211" stroke-width="3.825" stroke-linecap="round" stroke-linejoin="round"/>
<path d="M7.125 49.7861H10.3571" stroke="#121211" stroke-width="3.825" stroke-linecap="round" stroke-linejoin="round"/>
<path d="M116.355 69.4133C116.259 69.0419 116.05 68.7021 115.75 68.4327C115.45 68.1632 115.073 67.9749 114.66 67.8891L111.26 67.1835C111.197 67.1713 111.14 67.14 111.1 67.0947C111.059 67.0495 111.037 66.993 111.037 66.9349C111.037 66.8767 111.059 66.8202 111.1 66.775C111.14 66.7297 111.197 66.6984 111.26 66.6862L114.656 65.9806C115.069 65.895 115.447 65.7067 115.746 65.4372C116.046 65.1677 116.255 64.8279 116.351 64.4564L117.135 61.4011C117.148 61.3442 117.183 61.2932 117.234 61.2567C117.284 61.2201 117.347 61.2002 117.411 61.2002C117.476 61.2002 117.539 61.2201 117.589 61.2567C117.639 61.2932 117.674 61.3442 117.688 61.4011L118.472 64.4564C118.567 64.8283 118.776 65.1687 119.076 65.4384C119.376 65.7082 119.755 65.8966 120.168 65.982L123.564 66.6876C123.627 66.6998 123.684 66.7311 123.724 66.7764C123.765 66.8217 123.787 66.8781 123.787 66.9363C123.787 66.9945 123.765 67.0509 123.724 67.0961C123.684 67.1414 123.627 67.1727 123.564 67.185L120.168 67.8905C119.755 67.9762 119.378 68.1645 119.078 68.434C118.779 68.7035 118.569 69.0433 118.474 69.4147L117.689 72.4743C117.676 72.5312 117.641 72.5822 117.591 72.6187C117.54 72.6553 117.478 72.6752 117.413 72.6752C117.348 72.6752 117.286 72.6553 117.235 72.6187C117.185 72.5822 117.15 72.5312 117.136 72.4743L116.355 69.4133Z" fill="white"/>
<path d="M10.5617 76.068C11.0981 76.2017 11.5889 76.495 11.9781 76.9144C12.3674 77.3339 12.6394 77.8627 12.7633 78.4406L13.7824 83.2001C13.8001 83.2885 13.8453 83.3679 13.9107 83.4247C13.9761 83.4816 14.0576 83.5126 14.1417 83.5126C14.2257 83.5126 14.3072 83.4816 14.3726 83.4247C14.438 83.3679 14.4832 83.2885 14.5009 83.2001L15.52 78.4461C15.6437 77.8681 15.9156 77.3392 16.3049 76.9196C16.6942 76.5002 17.1851 76.207 17.7216 76.0735L22.1349 74.9757C22.217 74.9567 22.2907 74.9079 22.3435 74.8375C22.3963 74.7671 22.425 74.6793 22.425 74.5887C22.425 74.4982 22.3963 74.4104 22.3435 74.34C22.2907 74.2696 22.217 74.2208 22.1349 74.2018L17.7216 73.1039C17.1844 72.9708 16.6928 72.6775 16.3032 72.2575C15.9134 71.8375 15.6414 71.3079 15.518 70.7292L14.4988 65.9752C14.4812 65.8867 14.4359 65.8074 14.3705 65.7505C14.3051 65.6936 14.2237 65.6626 14.1396 65.6626C14.0555 65.6626 13.9741 65.6936 13.9087 65.7505C13.8433 65.8074 13.798 65.8867 13.7804 65.9752L12.7612 70.7292C12.6375 71.3071 12.3655 71.8357 11.9763 72.2551C11.587 72.6744 11.0962 72.9674 10.5597 73.1006L6.1402 74.1996C6.05809 74.2186 5.9844 74.2673 5.93164 74.3378C5.87878 74.4082 5.85005 74.496 5.85005 74.5865C5.85005 74.6771 5.87878 74.7648 5.93164 74.8353C5.9844 74.9057 6.05809 74.9545 6.1402 74.9735L10.5617 76.068Z" fill="white"/>
<path d="M54.2905 28.2636C54.4623 27.5622 54.8394 26.9203 55.3787 26.4114C55.918 25.9023 56.5979 25.5466 57.3409 25.3846L63.4603 24.0519C63.574 24.0288 63.676 23.9696 63.7491 23.8841C63.8223 23.7986 63.8621 23.6921 63.8621 23.5821C63.8621 23.4722 63.8223 23.3656 63.7491 23.2801C63.676 23.1947 63.574 23.1355 63.4603 23.1124L57.348 21.7796C56.6049 21.6179 55.9249 21.2624 55.3854 20.7533C54.8461 20.2442 54.4691 19.6022 54.2976 18.9007L52.8861 13.1294C52.8616 13.0221 52.7989 12.9257 52.7084 12.8567C52.6178 12.7876 52.505 12.75 52.3886 12.75C52.2721 12.75 52.1593 12.7876 52.0687 12.8567C51.9782 12.9257 51.9155 13.0221 51.8911 13.1294L50.4796 18.9007C50.3084 19.6032 49.9313 20.2461 49.3913 20.7556C48.8513 21.2652 48.1704 21.621 47.4263 21.7823L41.314 23.1151C41.2002 23.1382 41.0983 23.1973 41.0251 23.2828C40.952 23.3683 40.9121 23.4749 40.9121 23.5848C40.9121 23.6947 40.952 23.8013 41.0251 23.8868C41.0983 23.9723 41.2002 24.0315 41.314 24.0546L47.4263 25.3873C48.1693 25.5491 48.849 25.9047 49.3882 26.4138C49.9273 26.9229 50.304 27.5647 50.4753 28.2663L51.8882 34.0456C51.9127 34.1529 51.9753 34.2493 52.0659 34.3183C52.1564 34.3874 52.2693 34.425 52.3857 34.425C52.5021 34.425 52.615 34.3874 52.7055 34.3183C52.7961 34.2493 52.8588 34.1529 52.8832 34.0456L54.2905 28.2636Z" fill="white"/>
<path d="M108.945 93.0187V91.8062" stroke="#121211" stroke-width="3.825" stroke-linecap="round" stroke-linejoin="round"/>
<path d="M111.516 94.0838L112.372 93.2271" stroke="#121211" stroke-width="3.825" stroke-linecap="round" stroke-linejoin="round"/>
<path d="M112.581 96.6548H113.794" stroke="#121211" stroke-width="3.825" stroke-linecap="round" stroke-linejoin="round"/>
<path d="M111.516 99.2271L112.372 100.084" stroke="#121211" stroke-width="3.825" stroke-linecap="round" stroke-linejoin="round"/>
<path d="M108.945 100.292V101.504" stroke="#121211" stroke-width="3.825" stroke-linecap="round" stroke-linejoin="round"/>
<path d="M106.376 99.2271L105.52 100.084" stroke="#121211" stroke-width="3.825" stroke-linecap="round" stroke-linejoin="round"/>
<path d="M105.307 96.6548H104.095" stroke="#121211" stroke-width="3.825" stroke-linecap="round" stroke-linejoin="round"/>
<path d="M106.376 94.0838L105.52 93.2271" stroke="#121211" stroke-width="3.825" stroke-linecap="round" stroke-linejoin="round"/>
</svg>
