<svg width="56" height="56" viewBox="0 0 56 56" fill="none" xmlns="http://www.w3.org/2000/svg">
<g id="Frame" clip-path="url(#clip0_3_2366)">
<g id="Group 1000006080">
<circle id="Ellipse 2626" cx="33.5" cy="28.5" r="39.5" fill="#E4E1CE"/>
<g id="Group">
<path id="Vector" d="M34.7514 14.0004C35.1865 13.9924 35.6133 14.1178 35.9728 14.3591C36.3324 14.6004 36.6068 14.9457 36.7582 15.3472C36.9096 15.7488 36.9304 16.1867 36.8177 16.6004C36.7051 17.0141 36.4646 17.3831 36.1296 17.6564L23.306 28.4607L36.1375 39.265C36.3719 39.4331 36.5683 39.6473 36.7144 39.894C36.8605 40.1406 36.9531 40.4144 36.9862 40.6981C37.0194 40.9817 36.9925 41.269 36.9071 41.5419C36.8218 41.8147 36.6799 42.0672 36.4905 42.2834C36.301 42.4996 36.0681 42.6748 35.8063 42.798C35.5446 42.9211 35.2598 42.9895 34.9698 42.9989C34.6799 43.0082 34.3911 42.9584 34.1218 42.8524C33.8524 42.7464 33.6083 42.5866 33.4048 42.3831L18.7357 30.0431C18.505 29.8492 18.3198 29.6083 18.1928 29.3372C18.0658 29.066 18 28.7709 18 28.4723C18 28.1738 18.0658 27.8787 18.1928 27.6075C18.3198 27.3364 18.505 27.0955 18.7357 26.9016L33.4048 14.5226C33.7766 14.1969 34.2538 14.0118 34.7514 14.0004Z" fill="white"/>
</g>
</g>
</g>
<defs>
<clipPath id="clip0_3_2366">
<rect width="56" height="56" fill="white" transform="matrix(-1 0 0 1 56 0)"/>
</clipPath>
</defs>
</svg>
