<svg width="90" height="80" viewBox="0 0 90 80" fill="none" xmlns="http://www.w3.org/2000/svg">
<path d="M23.984 44.5959C24.7519 46.8244 25.8565 48.7348 27.2963 50.3294C28.7362 51.9239 30.3014 53.1031 31.9912 53.871C33.6811 54.6396 35.4769 55.0236 37.3774 55.0236C39.2799 55.0236 41.0737 54.6589 42.7635 53.929C44.4534 53.1991 45.9999 52.0372 47.4011 50.4433C48.8036 48.8482 49.8682 46.901 50.5988 44.5966L23.984 44.5959ZM28.4596 38.9678C31.5713 38.9678 34.1037 36.4353 34.1037 33.3243C34.1037 30.2126 31.5713 27.6802 28.4596 27.6802C25.3479 27.6802 22.8154 30.2119 22.8154 33.3243C22.8161 36.4367 25.3479 38.9678 28.4596 38.9678ZM28.4596 30.0153C29.3366 30.0165 30.1774 30.3655 30.7976 30.9856C31.4177 31.6058 31.7667 32.4466 31.7679 33.3236C31.7679 35.1475 30.2834 36.632 28.4596 36.632C26.6357 36.632 25.1512 35.1475 25.1512 33.3236C25.1524 32.4466 25.5014 31.6058 26.1216 30.9856C26.7417 30.3655 27.5825 30.0165 28.4596 30.0153Z" fill="#121211"/>
<path d="M29.0421 35.6623C30.0111 35.6623 30.7966 34.8768 30.7966 33.9078C30.7966 32.9388 30.0111 32.1533 29.0421 32.1533C28.0731 32.1533 27.2876 32.9388 27.2876 33.9078C27.2876 34.8768 28.0731 35.6623 29.0421 35.6623Z" fill="#121211"/>
<path d="M61.2782 66.9857C62.2469 66.9857 63.0321 66.2005 63.0321 65.2319C63.0321 64.2632 62.2469 63.478 61.2782 63.478C60.3096 63.478 59.5244 64.2632 59.5244 65.2319C59.5244 66.2005 60.3096 66.9857 61.2782 66.9857Z" fill="#121211"/>
<path d="M77.8845 2.22245L75.8887 0L67.9647 7.11332L65.4663 4.33025L64.1138 5.5448L66.1956 7.86458L53.2502 19.4855C51.421 18.0123 49.3679 16.7804 47.0841 15.7932C43.9724 14.4493 40.7087 13.7774 37.291 13.7774C33.8733 13.7774 30.6076 14.4486 27.4973 15.7925C24.3869 17.137 21.6972 18.9322 19.4314 21.1793C17.1656 23.4264 15.3604 26.1142 14.0166 29.2445C12.6778 32.3455 11.9914 35.6887 12.0001 39.0663C12.0001 42.4853 12.672 45.749 14.0166 48.8593C15.3604 51.9704 17.1663 54.6588 19.4314 56.9252C21.6965 59.1917 24.3869 60.9955 27.4973 62.3401C30.6076 63.6853 33.872 64.3559 37.2903 64.3559C40.708 64.3559 43.973 63.6839 47.0834 62.3401C50.1938 60.9962 52.8822 59.1904 55.15 56.9252C57.4144 54.6595 59.2189 51.9704 60.5648 48.8587C60.6368 48.6907 60.7001 48.52 60.7694 48.3501C61.7 51.9291 62.242 55.5914 62.5959 58.7204C62.5453 58.7191 62.4973 58.7124 62.4453 58.7124C59.3336 58.7124 56.8011 61.2442 56.8011 64.3559C56.8011 67.4676 59.3336 70 62.4453 70C65.557 70 68.0901 67.4682 68.0901 64.3559C68.0901 61.7041 66.2482 59.481 63.7798 58.8784C63.3579 55.1461 62.6826 50.7252 61.436 46.5276C62.2009 44.1146 62.5871 41.5976 62.5806 39.0663C62.5806 35.6486 61.9073 32.3742 60.5648 29.2445C59.9579 27.829 59.2306 26.4681 58.391 25.1769L56.3492 22.6378L69.1446 11.1503L71.5751 13.8567L72.9269 12.6421L69.9586 9.33711L77.8845 2.22245ZM65.7543 64.3565C65.7543 66.181 64.2698 67.6649 62.4459 67.6649C60.6221 67.6649 59.1376 66.1797 59.1376 64.3565C59.1388 63.4795 59.4878 62.6387 60.1079 62.0185C60.7281 61.3984 61.5689 61.0494 62.4459 61.0482C62.6206 61.0482 62.7899 61.0655 62.9579 61.0915C63.0439 61.1909 63.1575 61.2624 63.2843 61.2969C63.4111 61.3314 63.5453 61.3275 63.6698 61.2855C64.2843 61.5306 64.8113 61.9541 65.1828 62.5015C65.5544 63.0488 65.7534 63.695 65.7543 64.3565ZM55.8112 49.8106C53.9101 53.0943 51.3183 55.6854 48.0346 57.5872C44.751 59.4883 41.1693 60.4389 37.291 60.4389C33.4114 60.4389 29.831 59.4877 26.5474 57.5872C23.2637 55.6854 20.6719 53.0943 18.7694 49.8099C16.8696 46.5262 15.9184 42.9452 15.9184 39.0669C15.9184 35.188 16.8703 31.607 18.7694 28.322C20.6719 25.0383 23.2637 22.4465 26.5474 20.5447C29.831 18.6436 33.4114 17.6936 37.291 17.6936C41.1693 17.6936 44.751 18.6442 48.0346 20.5454C48.8372 21.0111 49.6091 21.5277 50.3458 22.0919L48.9952 23.3044C46.5101 25.5356 45.4236 28.7353 44.9503 30.8831L43.2171 29.1499L42.8045 29.5625L44.8123 31.5703C44.7298 32.0199 44.6659 32.4727 44.621 32.9275L42.8045 34.744L43.2171 35.1573L45.8082 32.5669L48.3999 35.1573L48.8126 34.744L46.6414 32.5742C52.4329 32.8629 56.1179 36.7545 58.4943 41.8413C58.1496 44.6522 57.2367 47.3636 55.8112 49.8106ZM55.5953 27.9733C55.6646 28.0913 55.7426 28.2033 55.8126 28.322C57.7137 31.6063 58.663 35.1866 58.663 39.0669C58.663 39.2663 58.649 39.4616 58.6456 39.6609C56.1319 35.1253 52.4396 31.7803 46.9554 31.4183L48.8099 29.5638L48.7252 29.4799L53.4708 25.2203L55.5953 27.9733Z" fill="#2E2E2A"/>
<path d="M9.07565 16.7614C9.19825 16.2294 9.46795 15.7425 9.85395 15.3563C10.24 14.9702 10.7267 14.7003 11.2587 14.5774L15.6407 13.5664C15.7212 13.5481 15.7931 13.5031 15.8447 13.4386C15.8962 13.3741 15.9243 13.294 15.9243 13.2114C15.9243 13.1288 15.8962 13.0487 15.8447 12.9842C15.7931 12.9197 15.7212 12.8746 15.6407 12.8564L11.2587 11.8454C10.7268 11.7225 10.24 11.4528 9.85385 11.0668C9.46775 10.6809 9.19775 10.1943 9.07465 9.66236L8.06365 5.28236C8.04495 5.20233 7.99985 5.13097 7.93545 5.07988C7.87105 5.02879 7.79135 5.00098 7.70915 5.00098C7.62695 5.00098 7.54725 5.02879 7.48285 5.07988C7.41845 5.13097 7.37335 5.20233 7.35465 5.28236L6.34365 9.66236C6.22095 10.1946 5.95115 10.6815 5.56495 11.0677C5.17875 11.4538 4.69185 11.7237 4.15965 11.8464L-0.220346 12.8564C-0.300866 12.8746 -0.372786 12.9197 -0.424316 12.9842C-0.475836 13.0487 -0.503906 13.1288 -0.503906 13.2114C-0.503906 13.294 -0.475836 13.3741 -0.424316 13.4386C-0.372786 13.5031 -0.300866 13.5481 -0.220346 13.5664L4.15965 14.5774C4.69175 14.7002 5.17865 14.9701 5.56485 15.3562C5.95095 15.7424 6.22085 16.2293 6.34365 16.7614L7.35465 21.1434C7.37335 21.2234 7.41845 21.2948 7.48285 21.3459C7.54725 21.397 7.62695 21.4248 7.70915 21.4248C7.79135 21.4248 7.87105 21.397 7.93545 21.3459C7.99985 21.2948 8.04495 21.2234 8.06365 21.1434L9.07565 16.7614Z" fill="url(#paint0_linear_25_2015)"/>
<path d="M77.9576 31.6165L79.1006 35.0455C79.122 35.1096 79.163 35.1654 79.2178 35.2049C79.2727 35.2445 79.3385 35.2657 79.4061 35.2657C79.4737 35.2657 79.5396 35.2445 79.5944 35.2049C79.6493 35.1654 79.6903 35.1096 79.7116 35.0455L80.6516 32.2275C80.7147 32.0378 80.8211 31.8653 80.9624 31.7238C81.1037 31.5824 81.276 31.4758 81.4656 31.4125L84.2836 30.4735C84.3478 30.4521 84.4035 30.4111 84.4431 30.3563C84.4826 30.3015 84.5039 30.2356 84.5039 30.168C84.5039 30.1004 84.4826 30.0345 84.4431 29.9797C84.4035 29.9249 84.3478 29.8839 84.2836 29.8625L81.4656 28.9235C81.276 28.8602 81.1037 28.7536 80.9624 28.6121C80.8211 28.4707 80.7147 28.2982 80.6516 28.1085L79.7116 25.2895C79.6903 25.2254 79.6493 25.1696 79.5944 25.1301C79.5396 25.0905 79.4737 25.0693 79.4061 25.0693C79.3385 25.0693 79.2727 25.0905 79.2178 25.1301C79.163 25.1696 79.122 25.2254 79.1006 25.2895L78.1616 28.1085C78.0982 28.2982 77.9916 28.4706 77.8501 28.612C77.7087 28.7534 77.5363 28.8601 77.3466 28.9235L74.5266 29.8625C74.4625 29.8839 74.4067 29.9249 74.3672 29.9797C74.3277 30.0345 74.3064 30.1004 74.3064 30.168C74.3064 30.2356 74.3277 30.3015 74.3672 30.3563C74.4067 30.4111 74.4625 30.4521 74.5266 30.4735L77.9576 31.6165Z" fill="url(#paint1_linear_25_2015)"/>
<path d="M11.3541 64.1578L7.92615 65.3008C7.86205 65.3222 7.80624 65.3632 7.76674 65.418C7.72714 65.4728 7.70595 65.5387 7.70595 65.6063C7.70595 65.6739 7.72714 65.7398 7.76674 65.7946C7.80624 65.8494 7.86205 65.8905 7.92615 65.9118L10.7441 66.8508C10.9336 66.9141 11.1058 67.0205 11.2471 67.1618C11.3884 67.3031 11.4948 67.4753 11.5581 67.6648L12.4981 70.4828C12.5195 70.5469 12.5605 70.6027 12.6153 70.6423C12.6701 70.6818 12.736 70.7031 12.8036 70.7031C12.8712 70.7031 12.9371 70.6818 12.9919 70.6423C13.0467 70.6027 13.0877 70.5469 13.1091 70.4828L14.0481 67.6658C14.1111 67.4761 14.2175 67.3036 14.3588 67.1622C14.5001 67.0207 14.6724 66.9141 14.8621 66.8508L17.6821 65.9118C17.7462 65.8905 17.802 65.8494 17.8415 65.7946C17.8811 65.7398 17.9023 65.6739 17.9023 65.6063C17.9023 65.5387 17.8811 65.4728 17.8415 65.418C17.802 65.3632 17.7462 65.3222 17.6821 65.3008L14.8631 64.3608C14.6734 64.2978 14.5009 64.1914 14.3595 64.0501C14.218 63.9088 14.1114 63.7365 14.0481 63.5468L13.1091 60.7268C13.0877 60.6627 13.0467 60.6069 12.9919 60.5674C12.9371 60.5278 12.8712 60.5066 12.8036 60.5066C12.736 60.5066 12.6701 60.5278 12.6153 60.5674C12.5605 60.6069 12.5195 60.6627 12.4981 60.7268L11.3541 64.1578Z" fill="url(#paint2_linear_25_2015)"/>
<defs>
<linearGradient id="paint0_linear_25_2015" x1="-0.503906" y1="13.9224" x2="15.9243" y2="13.9224" gradientUnits="userSpaceOnUse">
<stop offset="0.0729167" stop-color="#E3A455"/>
<stop offset="0.244792" stop-color="#F6DBA6"/>
<stop offset="0.434957" stop-color="#FFEBC4"/>
<stop offset="0.532623" stop-color="#F0BE79"/>
<stop offset="0.682292" stop-color="#8F653B"/>
<stop offset="0.838542" stop-color="#BA7F3B"/>
<stop offset="1" stop-color="#EEBC70"/>
</linearGradient>
<linearGradient id="paint1_linear_25_2015" x1="78.9646" y1="25.0693" x2="78.9646" y2="35.2657" gradientUnits="userSpaceOnUse">
<stop offset="0.0729167" stop-color="#E3A455"/>
<stop offset="0.244792" stop-color="#F6DBA6"/>
<stop offset="0.434957" stop-color="#FFEBC4"/>
<stop offset="0.532623" stop-color="#F0BE79"/>
<stop offset="0.682292" stop-color="#8F653B"/>
<stop offset="0.838542" stop-color="#BA7F3B"/>
<stop offset="1" stop-color="#EEBC70"/>
</linearGradient>
<linearGradient id="paint2_linear_25_2015" x1="17.9023" y1="65.1644" x2="7.70595" y2="65.1644" gradientUnits="userSpaceOnUse">
<stop offset="0.0729167" stop-color="#E3A455"/>
<stop offset="0.244792" stop-color="#F6DBA6"/>
<stop offset="0.434957" stop-color="#FFEBC4"/>
<stop offset="0.532623" stop-color="#F0BE79"/>
<stop offset="0.682292" stop-color="#8F653B"/>
<stop offset="0.838542" stop-color="#BA7F3B"/>
<stop offset="1" stop-color="#EEBC70"/>
</linearGradient>
</defs>
</svg>
