<svg width="70" height="69" viewBox="0 0 70 69" fill="none" xmlns="http://www.w3.org/2000/svg">
<g clip-path="url(#clip0_8_1675)">
<path d="M12.6383 11.5571C12.7229 11.1903 12.9089 10.8545 13.1751 10.5881C13.4413 10.3218 13.777 10.1357 14.1438 10.0509L17.1659 9.3537C17.2214 9.34108 17.271 9.31004 17.3066 9.26556C17.3421 9.22108 17.3615 9.16584 17.3615 9.10887C17.3615 9.05191 17.3421 8.99666 17.3066 8.95218C17.271 8.9077 17.2214 8.8766 17.1659 8.86404L14.1438 8.1668C13.777 8.08204 13.4413 7.89604 13.175 7.62984C12.9087 7.3637 12.7225 7.02811 12.6376 6.66128L11.9404 3.64059C11.9275 3.5854 11.8964 3.53618 11.852 3.50095C11.8076 3.46571 11.7526 3.44653 11.6959 3.44653C11.6392 3.44653 11.5843 3.46571 11.5398 3.50095C11.4954 3.53618 11.4643 3.5854 11.4514 3.64059L10.7542 6.66128C10.6696 7.02832 10.4835 7.36411 10.2172 7.63046C9.95081 7.89673 9.61502 8.08287 9.24799 8.16749L6.2273 8.86404C6.17177 8.8766 6.12217 8.9077 6.08663 8.95218C6.0511 8.99666 6.03174 9.05191 6.03174 9.10887C6.03174 9.16584 6.0511 9.22108 6.08663 9.26556C6.12217 9.31004 6.17177 9.34108 6.2273 9.3537L9.24799 10.0509C9.61495 10.1356 9.95075 10.3218 10.2171 10.588C10.4834 10.8544 10.6695 11.1902 10.7542 11.5571L11.4514 14.5792C11.4643 14.6344 11.4954 14.6836 11.5398 14.7189C11.5843 14.7541 11.6392 14.7733 11.6959 14.7733C11.7526 14.7733 11.8076 14.7541 11.852 14.7189C11.8964 14.6836 11.9275 14.6344 11.9404 14.5792L12.6383 11.5571Z" fill="url(#paint0_linear_8_1675)"/>
<path d="M60.143 21.8022L60.9313 24.167C60.9461 24.2112 60.9743 24.2497 61.0121 24.2769C61.05 24.3042 61.0954 24.3189 61.142 24.3189C61.1886 24.3189 61.2341 24.3042 61.2719 24.2769C61.3097 24.2497 61.338 24.2112 61.3527 24.167L62.001 22.2236C62.0445 22.0927 62.1179 21.9738 62.2153 21.8762C62.3127 21.7787 62.4316 21.7051 62.5623 21.6615L64.5058 21.0139C64.5501 20.9991 64.5885 20.9709 64.6158 20.9331C64.643 20.8953 64.6577 20.8498 64.6577 20.8032C64.6577 20.7566 64.643 20.7111 64.6158 20.6733C64.5885 20.6356 64.5501 20.6073 64.5058 20.5925L62.5623 19.9449C62.4316 19.9013 62.3127 19.8278 62.2153 19.7302C62.1179 19.6327 62.0445 19.5137 62.001 19.3829L61.3527 17.4387C61.338 17.3945 61.3097 17.356 61.2719 17.3288C61.2341 17.3015 61.1886 17.2869 61.142 17.2869C61.0954 17.2869 61.05 17.3015 61.0121 17.3288C60.9743 17.356 60.9461 17.3945 60.9313 17.4387L60.2837 19.3829C60.24 19.5137 60.1665 19.6326 60.0689 19.7301C59.9714 19.8276 59.8525 19.9012 59.7216 19.9449L57.7768 20.5925C57.7326 20.6073 57.6941 20.6356 57.6669 20.6733C57.6396 20.7111 57.625 20.7566 57.625 20.8032C57.625 20.8498 57.6396 20.8953 57.6669 20.9331C57.6941 20.9709 57.7326 20.9991 57.7768 21.0139L60.143 21.8022Z" fill="url(#paint1_linear_8_1675)"/>
<path d="M14.2096 44.2443L11.8454 45.0326C11.8012 45.0473 11.7628 45.0756 11.7355 45.1134C11.7082 45.1512 11.6936 45.1966 11.6936 45.2433C11.6936 45.2899 11.7082 45.3353 11.7355 45.3731C11.7628 45.4109 11.8012 45.4393 11.8454 45.454L13.7889 46.1015C13.9196 46.1452 14.0383 46.2186 14.1358 46.316C14.2332 46.4135 14.3066 46.5322 14.3503 46.6629L14.9986 48.6064C15.0133 48.6506 15.0416 48.6891 15.0794 48.7164C15.1172 48.7436 15.1626 48.7583 15.2092 48.7583C15.2559 48.7583 15.3013 48.7436 15.3391 48.7164C15.3769 48.6891 15.4052 48.6506 15.4199 48.6064L16.0675 46.6636C16.111 46.5328 16.1843 46.4138 16.2818 46.3163C16.3792 46.2187 16.4981 46.1452 16.6289 46.1015L18.5737 45.454C18.6179 45.4393 18.6564 45.4109 18.6837 45.3731C18.711 45.3353 18.7256 45.2899 18.7256 45.2433C18.7256 45.1966 18.711 45.1512 18.6837 45.1134C18.6564 45.0756 18.6179 45.0473 18.5737 45.0326L16.6296 44.3843C16.4988 44.3409 16.3798 44.2675 16.2823 44.17C16.1847 44.0726 16.1112 43.9537 16.0675 43.8229L15.4199 41.8781C15.4052 41.8339 15.3769 41.7954 15.3391 41.7682C15.3013 41.7408 15.2559 41.7262 15.2092 41.7262C15.1626 41.7262 15.1172 41.7408 15.0794 41.7682C15.0416 41.7954 15.0133 41.8339 14.9986 41.8781L14.2096 44.2443Z" fill="url(#paint2_linear_8_1675)"/>
<g clip-path="url(#clip1_8_1675)">
<path fill-rule="evenodd" clip-rule="evenodd" d="M49.9948 28.0661H36.9821C36.5895 28.0661 36.2731 27.7489 36.2731 27.3575C36.2734 26.9659 36.5893 26.6488 36.9818 26.6488L49.9949 26.6487C50.3875 26.6487 50.7035 26.9661 50.7035 27.3575C50.7036 27.7489 50.3872 28.0662 49.9948 28.0661ZM27.6665 40.9571C27.5458 40.9571 27.4239 40.9268 27.3133 40.8624C26.9736 40.6664 26.858 40.2331 27.0536 39.8941L33.5603 28.624C33.7557 28.2851 34.1889 28.1688 34.5284 28.3647C34.867 28.5603 34.9836 28.994 34.788 29.3328L28.2817 40.6028C28.1499 40.8301 27.9112 40.9573 27.6665 40.9571ZM59.3105 40.9571C59.0657 40.9571 58.8268 40.8302 58.6951 40.6028L52.1886 29.3327C51.9932 28.9938 52.1099 28.5605 52.4483 28.3647C52.788 28.1688 53.221 28.2852 53.4166 28.6242L59.9231 39.894C60.1189 40.2328 60.003 40.6665 59.6635 40.8623C59.5516 40.9266 59.4297 40.9573 59.3105 40.9571ZM34.1741 55.4691C33.9294 55.4691 33.6918 55.3423 33.5601 55.1149L27.0536 43.8449C26.8582 43.5058 26.9737 43.0725 27.3133 42.8769C27.653 42.6808 28.0859 42.7974 28.2816 43.1362L34.7881 54.406C34.9839 54.7449 34.8668 55.1786 34.5284 55.3742C34.4166 55.4386 34.2947 55.4693 34.1741 55.4691ZM52.8015 55.4691C52.6822 55.4691 52.5602 55.4387 52.4482 55.3743C52.1099 55.1784 51.9929 54.7451 52.1886 54.4062L58.6953 43.1362C58.8907 42.7974 59.325 42.6808 59.6634 42.8769C60.0031 43.0723 60.1187 43.506 59.923 43.8449L53.4167 55.1147C53.2851 55.342 53.0474 55.4693 52.8015 55.4691ZM49.9948 57.09H36.9821C36.5896 57.09 36.2731 56.773 36.2731 56.3814C36.2734 55.9899 36.5894 55.6728 36.9819 55.6728L49.9949 55.6726C50.3875 55.6726 50.7035 55.9901 50.7035 56.3814C50.7036 56.7727 50.3873 57.0902 49.9948 57.09Z" fill="#121211"/>
<path fill-rule="evenodd" clip-rule="evenodd" d="M35.109 26.1947C34.4681 26.1947 33.9461 26.7163 33.9461 27.3575C33.9462 27.9986 34.4679 28.5203 35.1089 28.5203C35.7513 28.5202 36.2729 27.9987 36.2729 27.3575C36.2731 26.7162 35.7512 26.1948 35.109 26.1947ZM35.109 29.9376C33.6866 29.9376 32.5287 28.7802 32.5287 27.3575C32.5288 25.9347 33.6866 24.7773 35.1089 24.7773C36.5325 24.7772 37.6904 25.9348 37.6904 27.3575C37.6906 28.7801 36.5325 29.9377 35.109 29.9376ZM51.8661 26.1947C51.2252 26.1947 50.7032 26.7163 50.7032 27.3575C50.7033 27.9986 51.2249 28.5203 51.8659 28.5203C52.5072 28.5202 53.0287 27.9987 53.0287 27.3575C53.0288 26.7162 52.507 26.1948 51.8661 26.1947ZM51.8661 29.9376C50.4436 29.9376 49.2858 28.7802 49.2858 27.3575C49.2858 25.9347 50.4436 24.7773 51.8659 24.7773C53.2895 24.7772 54.4461 25.9348 54.4461 27.3575C54.4462 28.7801 53.2895 29.9377 51.8661 29.9376ZM60.2453 40.7066C59.6041 40.7066 59.0823 41.2283 59.0823 41.8695C59.0826 42.5106 59.604 43.0324 60.2451 43.0324C60.8861 43.0321 61.4078 42.5107 61.4078 41.8695C61.408 41.2282 60.8861 40.7068 60.2453 40.7066ZM60.2453 44.4496C58.8229 44.4496 57.6649 43.2922 57.6649 41.8695C57.6651 40.4467 58.8227 39.2893 60.2451 39.2893C61.6674 39.2892 62.8253 40.4468 62.8253 41.8695C62.8255 43.2921 61.6674 44.4497 60.2453 44.4496ZM26.7311 40.7066C26.0899 40.7066 25.5682 41.2283 25.5682 41.8695C25.5684 42.5106 26.0899 43.0324 26.731 43.0324C27.372 43.0321 27.8937 42.5107 27.8937 41.8695C27.8939 41.2282 27.372 40.7068 26.7311 40.7066ZM26.7311 44.4496C25.3087 44.4496 24.1508 43.2922 24.1508 41.8695C24.1509 40.4467 25.3086 39.2893 26.731 39.2893C28.1535 39.2892 29.3112 40.4468 29.3112 41.8695C29.3113 43.2921 28.1533 44.4497 26.7311 44.4496ZM35.109 55.2186C34.4681 55.2186 33.9461 55.7404 33.9461 56.3814C33.9462 57.0225 34.4679 57.5444 35.1089 57.5444C35.7513 57.5444 36.2729 57.0226 36.2729 56.3814C36.2731 55.7404 35.7512 55.2187 35.109 55.2186ZM35.109 58.9615C33.6866 58.9615 32.5287 57.8042 32.5287 56.3814C32.5288 54.9586 33.6866 53.8013 35.1089 53.8013C36.5325 53.8011 37.6904 54.9587 37.6904 56.3814C37.6906 57.804 36.5325 58.9616 35.109 58.9615ZM51.8661 55.2186C51.2252 55.2186 50.7032 55.7404 50.7032 56.3814C50.7033 57.0225 51.2249 57.5444 51.8659 57.5444C52.5072 57.5444 53.0287 57.0226 53.0287 56.3814C53.0288 55.7404 52.507 55.2187 51.8661 55.2186ZM51.8661 58.9615C50.4436 58.9615 49.2858 57.8042 49.2858 56.3814C49.2858 54.9586 50.4436 53.8013 51.8659 53.8013C53.2895 53.8011 54.4461 54.9587 54.4461 56.3814C54.4462 57.804 53.2895 58.9616 51.8661 58.9615ZM43.4882 33.914C39.1015 33.914 35.5321 37.4828 35.5321 41.8695C35.5322 46.256 39.1015 49.825 43.488 49.825C47.8745 49.8248 51.4439 46.2562 51.4439 41.8695C51.4441 37.4829 47.8745 33.914 43.4882 33.914ZM43.4882 51.2423C38.3203 51.2423 34.1147 47.0378 34.1147 41.8696C34.1147 36.7013 38.3202 32.4967 43.488 32.4967C48.6558 32.4966 52.8613 36.7013 52.8613 41.8696C52.8616 47.0376 48.6558 51.2424 43.4882 51.2423ZM13.6368 34.4472H22.134L26.3842 27.0879L22.134 19.7285H13.6368L9.38835 27.0879L13.6368 34.4472ZM22.5438 35.8646H13.2271C12.9749 35.8646 12.7398 35.7297 12.6143 35.5104L7.95599 27.4422C7.82916 27.2229 7.82912 26.953 7.95587 26.7336L12.6144 18.6654C12.7399 18.4461 12.9748 18.3113 13.227 18.3113L22.5438 18.311C22.7973 18.311 23.031 18.4463 23.1577 18.6656L27.8162 26.7335C27.9417 26.953 27.9416 27.2231 27.8161 27.4423L23.1578 35.5103C23.031 35.7295 22.7972 35.8647 22.5438 35.8646ZM39.2394 19.6656H47.7366L51.9854 12.3063L47.7366 4.94719H39.2394L34.9907 12.3063L39.2394 19.6656ZM48.1466 21.0831H38.8297C38.5764 21.0831 38.3423 20.9481 38.2156 20.7288L33.5586 12.6606C33.4318 12.4414 33.4318 12.1714 33.5585 11.9522L38.2156 3.88415C38.3425 3.66485 38.5762 3.52982 38.8297 3.52982L48.1466 3.52979C48.3988 3.52979 48.6336 3.66485 48.7591 3.88415L53.4175 11.9519C53.5443 12.1712 53.5442 12.4415 53.4175 12.6609L48.7593 20.7287C48.6336 20.948 48.3986 21.0832 48.1466 21.0831Z" fill="#121211"/>
<path fill-rule="evenodd" clip-rule="evenodd" d="M41.3827 15.9531H45.5933L47.6987 12.3062L45.5933 8.65963H41.3827L39.2776 12.3062L41.3827 15.9531ZM46.003 17.3705H40.973C40.7197 17.3705 40.4858 17.2356 40.359 17.0162L37.8455 12.6606C37.7187 12.4413 37.7185 12.1713 37.8453 11.9521L40.3593 7.59655C40.4858 7.37725 40.7195 7.24227 40.973 7.24227L46.003 7.24219C46.2552 7.24219 46.4902 7.37733 46.6169 7.59663L49.1308 11.9519C49.2576 12.1711 49.2574 12.4414 49.1307 12.6608L46.617 17.0162C46.4902 17.2355 46.2551 17.3705 46.003 17.3705ZM30.9195 35.3223C30.8002 35.3223 30.6769 35.2918 30.5662 35.2273L24.5189 31.7357C24.1791 31.5397 24.0634 31.1066 24.259 30.7677C24.4549 30.4287 24.8878 30.3123 25.2274 30.5083L31.275 33.9998C31.6133 34.1952 31.7302 34.6289 31.5345 34.968C31.4029 35.1952 31.1642 35.3224 30.9195 35.3223ZM43.4882 28.0661C43.0967 28.0661 42.7793 27.7489 42.7793 27.3575L42.7795 20.3743C42.7795 19.9828 43.0967 19.6658 43.488 19.6658C43.8794 19.6655 44.1967 19.983 44.1967 20.3744L44.1969 27.3574C44.1969 27.7489 43.8793 28.0662 43.4882 28.0661ZM13.6368 64.0102H22.134L26.3842 56.6508L22.134 49.2915H13.6368L9.38835 56.6508L13.6368 64.0102ZM22.5438 65.4277H13.2271C12.9749 65.4277 12.741 65.2926 12.6143 65.0733L7.95599 57.0052C7.82916 56.786 7.82912 56.5159 7.95587 56.2966L12.6144 48.2284C12.7413 48.0092 12.9748 47.8743 13.227 47.8743L22.5438 47.8741C22.7973 47.8741 23.031 48.0093 23.1577 48.2286L27.8162 56.2965C27.9417 56.5158 27.9416 56.7861 27.8161 57.0053L23.1578 65.0733C23.031 65.2926 22.7972 65.4277 22.5438 65.4277Z" fill="#121211"/>
<path fill-rule="evenodd" clip-rule="evenodd" d="M24.8729 53.3257C24.6278 53.3257 24.3903 53.1988 24.2587 52.9714C24.063 52.6322 24.1787 52.1989 24.5183 52.0032L30.5659 48.5116C30.9056 48.3159 31.3385 48.4321 31.5342 48.7711C31.73 49.1099 31.6129 49.5436 31.2745 49.7392L25.2272 53.2308C25.1151 53.295 24.9932 53.3257 24.8729 53.3257ZM41.2828 45.6673C41.0946 45.6673 40.9149 45.5927 40.782 45.4597L39.0127 43.6903C38.7359 43.4138 38.7359 42.9651 39.0127 42.6882C39.2896 42.4113 39.7386 42.4115 40.0155 42.6884L41.2828 43.9564L46.9601 38.2789C47.2369 38.002 47.6859 38.0022 47.9628 38.279C48.2397 38.5557 48.2396 39.0046 47.9628 39.2813L41.7836 45.4597C41.6508 45.5925 41.4711 45.6673 41.2828 45.6673ZM15.7799 60.2974H19.9904L22.0958 56.6505L19.9904 53.0039H15.7799L13.6748 56.6505L15.7799 60.2974ZM20.4001 61.7149H15.3702C15.1179 61.7149 14.8841 61.58 14.7574 61.3607L12.2426 57.0049C12.1159 56.7857 12.1157 56.5158 12.2424 56.2966L14.7575 51.9409C14.8843 51.7216 15.1179 51.5868 15.3701 51.5868L20.4001 51.5865C20.6537 51.5865 20.8873 51.7217 21.0141 51.9411L23.5279 56.2964C23.6547 56.5157 23.6545 56.7859 23.5278 57.0051L21.0142 61.3605C20.8874 61.5798 20.6535 61.7151 20.4001 61.7149ZM15.7799 30.7346H19.9904L22.0958 27.0877L19.9904 23.4411H15.7799L13.6748 27.0877L15.7799 30.7346ZM20.4001 32.152H15.3702C15.1179 32.152 14.8841 32.0171 14.7574 31.7978L12.2426 27.4421C12.1159 27.2228 12.1157 26.9529 12.2424 26.7335L14.7575 22.378C14.8843 22.1587 15.1179 22.0237 15.3701 22.0237L20.4001 22.0237C20.6537 22.0237 20.8873 22.1588 21.0141 22.3781L23.5279 26.7334C23.6547 26.9529 23.6545 27.223 23.5278 27.4422L21.0142 31.7977C20.8874 32.017 20.6535 32.1522 20.4001 32.152Z" fill="#121211"/>
</g>
</g>
<defs>
<linearGradient id="paint0_linear_8_1675" x1="6.03174" y1="9.59923" x2="17.3615" y2="9.59923" gradientUnits="userSpaceOnUse">
<stop offset="0.0729167" stop-color="#E3A455"/>
<stop offset="0.244792" stop-color="#F6DBA6"/>
<stop offset="0.434957" stop-color="#FFEBC4"/>
<stop offset="0.532623" stop-color="#F0BE79"/>
<stop offset="0.682292" stop-color="#8F653B"/>
<stop offset="0.838542" stop-color="#BA7F3B"/>
<stop offset="1" stop-color="#EEBC70"/>
</linearGradient>
<linearGradient id="paint1_linear_8_1675" x1="60.8375" y1="17.2869" x2="60.8375" y2="24.3189" gradientUnits="userSpaceOnUse">
<stop offset="0.0729167" stop-color="#E3A455"/>
<stop offset="0.244792" stop-color="#F6DBA6"/>
<stop offset="0.434957" stop-color="#FFEBC4"/>
<stop offset="0.532623" stop-color="#F0BE79"/>
<stop offset="0.682292" stop-color="#8F653B"/>
<stop offset="0.838542" stop-color="#BA7F3B"/>
<stop offset="1" stop-color="#EEBC70"/>
</linearGradient>
<linearGradient id="paint2_linear_8_1675" x1="18.7256" y1="44.9385" x2="11.6936" y2="44.9385" gradientUnits="userSpaceOnUse">
<stop offset="0.0729167" stop-color="#E3A455"/>
<stop offset="0.244792" stop-color="#F6DBA6"/>
<stop offset="0.434957" stop-color="#FFEBC4"/>
<stop offset="0.532623" stop-color="#F0BE79"/>
<stop offset="0.682292" stop-color="#8F653B"/>
<stop offset="0.838542" stop-color="#BA7F3B"/>
<stop offset="1" stop-color="#EEBC70"/>
</linearGradient>
<clipPath id="clip0_8_1675">
<rect width="68.9655" height="68.9655" fill="white" transform="translate(0.861816 -0.00244141)"/>
</clipPath>
<clipPath id="clip1_8_1675">
<rect width="68.9655" height="68.9655" fill="white" transform="translate(0.861816 -0.00244141)"/>
</clipPath>
</defs>
</svg>
