<svg width="66" height="66" viewBox="0 0 66 66" fill="none" xmlns="http://www.w3.org/2000/svg">
<path d="M33.2419 7.72168C19.342 7.72168 8.03418 19.0295 8.03418 32.9284C8.03418 46.8273 19.342 58.1352 33.2419 58.1352C47.1408 58.1352 58.4487 46.8273 58.4487 32.9284C58.4487 19.0295 47.1408 7.72168 33.2419 7.72168ZM33.2419 56.0877C20.4712 56.0877 10.0816 45.6992 10.0816 32.9284C10.0816 20.1577 20.4712 9.76909 33.2419 9.76909C46.0127 9.76909 56.4013 20.1577 56.4013 32.9284C56.4013 45.6992 46.0127 56.0877 33.2419 56.0877Z" fill="#121211"/>
<path d="M33.2415 10.8677C28.0493 10.8677 22.9973 12.7165 19.0171 16.0732C18.7981 16.2585 18.666 16.5257 18.6547 16.8123C18.6425 17.099 18.751 17.3774 18.9537 17.5801L27.4085 26.0431C27.3071 26.04 27.217 26.0237 27.1136 26.0237C26.5967 26.0237 26.1217 26.0605 25.7173 26.1076L18.0559 18.4452C17.8552 18.2445 17.5799 18.1145 17.2953 18.1462C17.0117 18.1565 16.7445 18.2844 16.5582 18.4984C13.0909 22.5011 11.1807 27.6258 11.1807 32.9286C11.1807 45.0933 21.0768 54.9894 33.2415 54.9894C38.5443 54.9894 43.669 53.0792 47.6717 49.6109C47.8857 49.4246 48.0136 49.1584 48.0239 48.8728C48.0341 48.5892 47.9256 48.3139 47.725 48.1132L41.812 42.2013C42.0147 41.7887 42.1744 41.366 42.3024 40.9493L48.5797 47.2175C48.7722 47.4099 49.0322 47.5164 49.3035 47.5164C49.3178 47.5164 49.3322 47.5164 49.3465 47.5154C49.6321 47.5031 49.9003 47.372 50.0856 47.153C53.4495 43.1789 55.3024 38.1259 55.3024 32.9286C55.3024 20.7638 45.4063 10.8677 33.2415 10.8677ZM30.41 29.0088C31.7674 30.1103 32.1104 32.2283 32.1943 33.3882C31.8247 33.4384 31.3528 33.4834 30.8369 33.4834C29.8602 33.4834 28.4956 33.3206 27.5405 32.5457C26.1831 31.4442 25.8401 29.3261 25.7562 28.1663C26.1258 28.1161 26.5977 28.0711 27.1136 28.0711C28.0903 28.0711 29.4549 28.2338 30.41 29.0088ZM33.2415 52.942C22.206 52.942 13.2281 43.9641 13.2281 32.9286C13.2281 28.4867 14.7053 24.1841 17.4079 20.6922L23.7385 27.0238C23.7139 27.1047 23.6904 27.1866 23.6873 27.2746C23.6791 27.464 23.5276 31.9264 26.2517 34.1355C27.3921 35.0609 28.9358 35.5308 30.8379 35.5308C31.3487 35.5308 31.8176 35.495 32.2189 35.4479V38.0113C32.0581 37.8403 31.8882 37.6775 31.7009 37.526C30.5605 36.6006 29.0167 36.1307 27.1147 36.1307C25.6559 36.1307 24.5063 36.4184 24.4581 36.4317C24.019 36.5422 23.7057 36.9282 23.6873 37.3817C23.6791 37.5711 23.5276 42.0334 26.2517 44.2426C27.3921 45.168 28.9358 45.6379 30.8379 45.6379C31.3487 45.6379 31.8176 45.6021 32.2189 45.555V49.2444C32.2189 49.8105 32.6775 50.2681 33.2426 50.2681C33.8077 50.2681 34.2663 49.8105 34.2663 49.2444V45.555C34.6676 45.601 35.1364 45.6379 35.6473 45.6379C37.5493 45.6379 39.0931 45.168 40.2335 44.2426C40.3676 44.133 40.4904 44.0143 40.6112 43.8955L45.4789 48.7622C41.9861 51.4648 37.6834 52.942 33.2415 52.942ZM33.2415 25.3153C32.3929 24.5198 30.9638 22.9188 30.9638 21.1703C30.9638 19.4218 32.3929 17.8217 33.2415 17.0253C34.0902 17.8207 35.5193 19.4218 35.5193 21.1703C35.5193 22.9188 34.0902 24.5198 33.2415 25.3153ZM32.1943 43.4953C31.8247 43.5454 31.3528 43.5905 30.8369 43.5905C29.8602 43.5905 28.4956 43.4277 27.5405 42.6528C26.1831 41.5512 25.8401 39.4332 25.7562 38.2733C26.1258 38.2232 26.5977 38.1781 27.1136 38.1781C28.0903 38.1781 29.4549 38.3409 30.41 39.1158C31.7684 40.2174 32.1114 42.3344 32.1943 43.4953ZM39.3695 38.1781C39.8844 38.1781 40.3563 38.2232 40.7248 38.2733C40.6419 39.4342 40.3 41.5512 38.9426 42.6528C37.9864 43.4277 36.6218 43.5905 35.6452 43.5905C35.1293 43.5905 34.6573 43.5454 34.2888 43.4953C34.3717 42.3344 34.7147 40.2174 36.0721 39.1158C37.0282 38.3409 38.3928 38.1781 39.3695 38.1781ZM49.2185 44.9612L42.76 38.5119C42.8112 37.8751 42.7979 37.438 42.7948 37.3817C42.7753 36.9292 42.4631 36.5433 42.0239 36.4317C41.984 36.4204 41.1743 36.2208 40.0635 36.1543C40.04 36.1522 40.0175 36.1502 39.9939 36.1491C39.7933 36.1379 39.5865 36.1307 39.3695 36.1307C37.4674 36.1307 35.9237 36.6006 34.7833 37.526C34.5969 37.6775 34.426 37.8413 34.2653 38.0113V35.4479C34.6665 35.494 35.1354 35.5308 35.6462 35.5308C37.5483 35.5308 39.092 35.0609 40.2324 34.1355C42.9555 31.9264 42.804 27.463 42.7958 27.2746C42.7764 26.8221 42.4641 26.4362 42.025 26.3246C41.9768 26.3113 40.8272 26.0237 39.3695 26.0237C37.4674 26.0237 35.9237 26.4935 34.7833 27.419C34.5969 27.5705 34.426 27.7343 34.2653 27.9042V27.1487C35.2357 26.3123 37.5667 24.009 37.5667 21.1703C37.5667 17.662 34.0052 14.9686 33.8537 14.856C33.4913 14.5858 32.9928 14.5858 32.6304 14.856C32.4789 14.9686 28.9174 17.662 28.9174 21.1703C28.9174 24.009 31.2484 26.3123 32.2189 27.1487V27.9042C32.0581 27.7332 31.8882 27.5705 31.7009 27.419C31.6814 27.4036 31.6579 27.3934 31.6384 27.378L21.2109 16.9434C24.6731 14.338 28.9041 12.9151 33.2415 12.9151C44.2771 12.9151 53.255 21.893 53.255 32.9286C53.255 37.2701 51.828 41.5011 49.2185 44.9612ZM34.2888 33.3882C34.3717 32.2273 34.7147 30.1103 36.0721 29.0088C37.0282 28.2338 38.3928 28.0711 39.3695 28.0711C39.8844 28.0711 40.3563 28.1161 40.7248 28.1663C40.6419 29.3272 40.3 31.4442 38.9426 32.5457C37.9864 33.3206 36.6218 33.4834 35.6452 33.4834C35.1303 33.4834 34.6584 33.4384 34.2888 33.3882Z" fill="#121211"/>
<path d="M13.6383 17.9365C13.7229 17.5696 13.9089 17.2339 14.1751 16.9675C14.4413 16.7012 14.777 16.5151 15.1438 16.4303L18.1659 15.7331C18.2214 15.7205 18.271 15.6894 18.3066 15.645C18.3421 15.6005 18.3615 15.5452 18.3615 15.4883C18.3615 15.4313 18.3421 15.3761 18.3066 15.3316C18.271 15.2871 18.2214 15.256 18.1659 15.2434L15.1438 14.5462C14.777 14.4614 14.4413 14.2754 14.175 14.0092C13.9087 13.7431 13.7225 13.4075 13.6376 13.0407L12.9404 10.02C12.9275 9.96479 12.8964 9.91558 12.852 9.88034C12.8076 9.84511 12.7526 9.82593 12.6959 9.82593C12.6392 9.82593 12.5843 9.84511 12.5398 9.88034C12.4954 9.91558 12.4643 9.96479 12.4514 10.02L11.7542 13.0407C11.6696 13.4077 11.4835 13.7435 11.2172 14.0099C10.9508 14.2761 10.615 14.4623 10.248 14.5469L7.2273 15.2434C7.17177 15.256 7.12217 15.2871 7.08663 15.3316C7.0511 15.3761 7.03174 15.4313 7.03174 15.4883C7.03174 15.5452 7.0511 15.6005 7.08663 15.645C7.12217 15.6894 7.17177 15.7205 7.2273 15.7331L10.248 16.4303C10.615 16.515 10.9507 16.7012 11.2171 16.9674C11.4834 17.2338 11.6695 17.5696 11.7542 17.9365L12.4514 20.9586C12.4643 21.0138 12.4954 21.063 12.5398 21.0983C12.5843 21.1335 12.6392 21.1527 12.6959 21.1527C12.7526 21.1527 12.8076 21.1335 12.852 21.0983C12.8964 21.063 12.9275 21.0138 12.9404 20.9586L13.6383 17.9365Z" fill="url(#paint0_linear_8_1663)"/>
<path d="M61.143 28.1816L61.9313 30.5464C61.9461 30.5906 61.9743 30.6291 62.0121 30.6563C62.05 30.6836 62.0954 30.6983 62.142 30.6983C62.1886 30.6983 62.2341 30.6836 62.2719 30.6563C62.3097 30.6291 62.338 30.5906 62.3527 30.5464L63.001 28.603C63.0445 28.4721 63.1179 28.3532 63.2153 28.2556C63.3127 28.1581 63.4316 28.0845 63.5623 28.0409L65.5058 27.3933C65.5501 27.3785 65.5885 27.3503 65.6158 27.3125C65.643 27.2747 65.6577 27.2292 65.6577 27.1826C65.6577 27.136 65.643 27.0905 65.6158 27.0527C65.5885 27.015 65.5501 26.9867 65.5058 26.9719L63.5623 26.3243C63.4316 26.2807 63.3127 26.2072 63.2153 26.1096C63.1179 26.0121 63.0445 25.8931 63.001 25.7623L62.3527 23.8181C62.338 23.7739 62.3097 23.7354 62.2719 23.7082C62.2341 23.6809 62.1886 23.6663 62.142 23.6663C62.0954 23.6663 62.05 23.6809 62.0121 23.7082C61.9743 23.7354 61.9461 23.7739 61.9313 23.8181L61.2837 25.7623C61.24 25.8931 61.1665 26.012 61.0689 26.1095C60.9714 26.207 60.8525 26.2806 60.7216 26.3243L58.7768 26.9719C58.7326 26.9867 58.6941 27.0149 58.6669 27.0527C58.6396 27.0905 58.625 27.136 58.625 27.1826C58.625 27.2292 58.6396 27.2747 58.6669 27.3125C58.6941 27.3503 58.7326 27.3785 58.7768 27.3933L61.143 28.1816Z" fill="url(#paint1_linear_8_1663)"/>
<path d="M15.2096 50.6237L12.8454 51.412C12.8012 51.4267 12.7628 51.455 12.7355 51.4928C12.7082 51.5306 12.6936 51.576 12.6936 51.6227C12.6936 51.6693 12.7082 51.7147 12.7355 51.7525C12.7628 51.7903 12.8012 51.8187 12.8454 51.8334L14.7889 52.4809C14.9196 52.5246 15.0383 52.598 15.1358 52.6954C15.2332 52.7929 15.3066 52.9116 15.3503 53.0423L15.9986 54.9858C16.0133 55.03 16.0416 55.0685 16.0794 55.0958C16.1172 55.123 16.1626 55.1377 16.2092 55.1377C16.2559 55.1377 16.3013 55.123 16.3391 55.0958C16.3769 55.0685 16.4052 55.03 16.4199 54.9858L17.0675 53.043C17.111 52.9122 17.1843 52.7932 17.2818 52.6957C17.3792 52.5981 17.4981 52.5246 17.6289 52.4809L19.5737 51.8334C19.6179 51.8187 19.6564 51.7903 19.6837 51.7525C19.711 51.7147 19.7256 51.6693 19.7256 51.6227C19.7256 51.576 19.711 51.5306 19.6837 51.4928C19.6564 51.455 19.6179 51.4267 19.5737 51.412L17.6296 50.7637C17.4988 50.7202 17.3798 50.6469 17.2823 50.5494C17.1847 50.452 17.1112 50.3331 17.0675 50.2023L16.4199 48.2575C16.4052 48.2133 16.3769 48.1748 16.3391 48.1476C16.3013 48.1202 16.2559 48.1056 16.2092 48.1056C16.1626 48.1056 16.1172 48.1202 16.0794 48.1476C16.0416 48.1748 16.0133 48.2133 15.9986 48.2575L15.2096 50.6237Z" fill="url(#paint2_linear_8_1663)"/>
<defs>
<linearGradient id="paint0_linear_8_1663" x1="7.03174" y1="15.9786" x2="18.3615" y2="15.9786" gradientUnits="userSpaceOnUse">
<stop offset="0.0729167" stop-color="#E3A455"/>
<stop offset="0.244792" stop-color="#F6DBA6"/>
<stop offset="0.434957" stop-color="#FFEBC4"/>
<stop offset="0.532623" stop-color="#F0BE79"/>
<stop offset="0.682292" stop-color="#8F653B"/>
<stop offset="0.838542" stop-color="#BA7F3B"/>
<stop offset="1" stop-color="#EEBC70"/>
</linearGradient>
<linearGradient id="paint1_linear_8_1663" x1="61.8375" y1="23.6663" x2="61.8375" y2="30.6983" gradientUnits="userSpaceOnUse">
<stop offset="0.0729167" stop-color="#E3A455"/>
<stop offset="0.244792" stop-color="#F6DBA6"/>
<stop offset="0.434957" stop-color="#FFEBC4"/>
<stop offset="0.532623" stop-color="#F0BE79"/>
<stop offset="0.682292" stop-color="#8F653B"/>
<stop offset="0.838542" stop-color="#BA7F3B"/>
<stop offset="1" stop-color="#EEBC70"/>
</linearGradient>
<linearGradient id="paint2_linear_8_1663" x1="19.7256" y1="51.3179" x2="12.6936" y2="51.3179" gradientUnits="userSpaceOnUse">
<stop offset="0.0729167" stop-color="#E3A455"/>
<stop offset="0.244792" stop-color="#F6DBA6"/>
<stop offset="0.434957" stop-color="#FFEBC4"/>
<stop offset="0.532623" stop-color="#F0BE79"/>
<stop offset="0.682292" stop-color="#8F653B"/>
<stop offset="0.838542" stop-color="#BA7F3B"/>
<stop offset="1" stop-color="#EEBC70"/>
</linearGradient>
</defs>
</svg>
