<svg xmlns="http://www.w3.org/2000/svg" width="66" height="66" viewBox="0 0 66 66" fill="none">
  <circle cx="32.9995" cy="33" r="33" fill="#1F4934"/>
  <path d="M29.2482 19.0004C28.8131 18.9924 28.3862 19.1178 28.0267 19.3591C27.6671 19.6004 27.3927 19.9457 27.2413 20.3472C27.09 20.7488 27.0691 21.1867 27.1818 21.6004C27.2944 22.0141 27.5349 22.3831 27.87 22.6564L40.6935 33.4607L27.862 44.265C27.6276 44.4331 27.4312 44.6473 27.2851 44.894C27.139 45.1406 27.0464 45.4144 27.0133 45.6981C26.9801 45.9817 27.007 46.269 27.0924 46.5419C27.1777 46.8147 27.3196 47.0672 27.509 47.2834C27.6985 47.4996 27.9315 47.6748 28.1932 47.798C28.4549 47.9211 28.7397 47.9895 29.0297 47.9989C29.3196 48.0082 29.6084 47.9584 29.8777 47.8524C30.1471 47.7464 30.3912 47.5866 30.5947 47.3831L45.2638 35.0431C45.4945 34.8492 45.6797 34.6083 45.8067 34.3372C45.9337 34.066 45.9995 33.7709 45.9995 33.4723C45.9995 33.1738 45.9337 32.8787 45.8067 32.6075C45.6797 32.3364 45.4945 32.0955 45.2638 31.9016L30.5947 19.5226C30.2229 19.1969 29.7457 19.0118 29.2482 19.0004Z" fill="white"/>
</svg>