<svg width="56" height="56" viewBox="0 0 56 56" fill="none" xmlns="http://www.w3.org/2000/svg">
<g id="Frame" clip-path="url(#clip0_3_2361)">
<g id="Group">
<g id="Group 1000006081">
<circle id="Ellipse 2627" cx="25.5" cy="27.5" r="39.5" fill="#E4E1CE"/>
<path id="Vector" d="M20.2486 14.0004C19.8135 13.9924 19.3867 14.1178 19.0272 14.3591C18.6676 14.6004 18.3932 14.9457 18.2418 15.3472C18.0904 15.7488 18.0696 16.1867 18.1823 16.6004C18.2949 17.0141 18.5354 17.3831 18.8704 17.6564L31.694 28.4607L18.8625 39.265C18.6281 39.4331 18.4317 39.6473 18.2856 39.894C18.1395 40.1406 18.0469 40.4144 18.0138 40.6981C17.9806 40.9817 18.0075 41.269 18.0929 41.5419C18.1782 41.8147 18.3201 42.0672 18.5095 42.2834C18.699 42.4996 18.9319 42.6748 19.1937 42.798C19.4554 42.9211 19.7402 42.9895 20.0302 42.9989C20.3201 43.0082 20.6089 42.9584 20.8782 42.8524C21.1476 42.7464 21.3917 42.5866 21.5952 42.3831L36.2643 30.0431C36.495 29.8492 36.6802 29.6083 36.8072 29.3372C36.9342 29.066 37 28.7709 37 28.4723C37 28.1738 36.9342 27.8787 36.8072 27.6075C36.6802 27.3364 36.495 27.0955 36.2643 26.9016L21.5952 14.5226C21.2234 14.1969 20.7462 14.0118 20.2486 14.0004Z" fill="white"/>
</g>
</g>
</g>
<defs>
<clipPath id="clip0_3_2361">
<rect width="56" height="56" fill="white"/>
</clipPath>
</defs>
</svg>
