<svg width="141" height="141" viewBox="0 0 141 141" fill="none" xmlns="http://www.w3.org/2000/svg">
<path d="M17.8058 71.7428C17.9321 71.2427 18.2091 70.7851 18.6053 70.4222C19.0015 70.0592 19.501 69.8056 20.0468 69.6901L24.5423 68.7398C24.6259 68.7233 24.7008 68.6811 24.7545 68.6202C24.8083 68.5592 24.8375 68.4832 24.8375 68.4048C24.8375 68.3264 24.8083 68.2505 24.7545 68.1895C24.7008 68.1285 24.6259 68.0863 24.5423 68.0699L20.052 67.1196C19.5061 67.0043 19.0065 66.7507 18.6102 66.3878C18.214 66.0248 17.9371 65.567 17.811 65.0668L16.7741 60.9517C16.7561 60.8751 16.7101 60.8064 16.6436 60.7572C16.577 60.7079 16.4941 60.6812 16.4086 60.6812C16.3231 60.6812 16.2402 60.7079 16.1737 60.7572C16.1071 60.8064 16.0611 60.8751 16.0431 60.9517L15.0062 65.0668C14.8804 65.5677 14.6034 66.0261 14.2067 66.3894C13.81 66.7528 13.3098 67.0065 12.7631 67.1215L8.27279 68.0718C8.18921 68.0883 8.11431 68.1305 8.06058 68.1914C8.00685 68.2524 7.97754 68.3284 7.97754 68.4067C7.97754 68.4851 8.00685 68.5611 8.06058 68.6221C8.11431 68.683 8.18921 68.7252 8.27279 68.7417L12.7631 69.692C13.3089 69.8073 13.8083 70.0609 14.2044 70.4239C14.6005 70.7869 14.8772 71.2445 15.003 71.7448L16.041 75.8656C16.059 75.9422 16.105 76.0109 16.1716 76.0601C16.2381 76.1094 16.321 76.1362 16.4065 76.1362C16.492 76.1362 16.575 76.1094 16.6415 76.0601C16.708 76.0109 16.754 75.9422 16.772 75.8656L17.8058 71.7428Z" stroke="#121211" stroke-width="1.405" stroke-linecap="round" stroke-linejoin="round"/>
<path d="M45.1995 36.7653C45.3888 35.9923 45.8044 35.2851 46.3987 34.7242C46.993 34.1633 47.7422 33.7713 48.5609 33.5928L55.3042 32.1242C55.4295 32.0987 55.542 32.0335 55.6225 31.9393C55.7032 31.8451 55.747 31.7276 55.747 31.6065C55.747 31.4854 55.7032 31.3679 55.6225 31.2737C55.542 31.1795 55.4295 31.1143 55.3042 31.0889L48.5688 29.6202C47.7498 29.442 47.0005 29.0502 46.406 28.4892C45.8118 27.9282 45.3964 27.2208 45.2073 26.4477L43.6519 20.088C43.6249 19.9697 43.5559 19.8635 43.4561 19.7875C43.3563 19.7113 43.2319 19.6699 43.1036 19.6699C42.9753 19.6699 42.851 19.7113 42.7512 19.7875C42.6514 19.8635 42.5823 19.9697 42.5554 20.088L41 26.4477C40.8114 27.2219 40.3958 27.9303 39.8008 28.4917C39.2057 29.0533 38.4554 29.4454 37.6354 29.6232L30.8999 31.0918C30.7745 31.1173 30.6622 31.1825 30.5816 31.2767C30.501 31.3709 30.457 31.4883 30.457 31.6095C30.457 31.7306 30.501 31.848 30.5816 31.9422C30.6622 32.0365 30.7745 32.1017 30.8999 32.1271L37.6354 33.5958C38.4541 33.774 39.2032 34.1659 39.7973 34.7269C40.3914 35.2879 40.8065 35.9951 40.9953 36.7682L42.5523 43.1368C42.5792 43.2551 42.6483 43.3613 42.7481 43.4373C42.8478 43.5135 42.9722 43.5549 43.1005 43.5549C43.2288 43.5549 43.3532 43.5135 43.4529 43.4373C43.5527 43.3613 43.6218 43.2551 43.6487 43.1368L45.1995 36.7653Z" fill="white"/>
<path d="M100.7 35.2131C100.827 34.7129 101.104 34.2553 101.5 33.8924C101.896 33.5294 102.395 33.2758 102.941 33.1603L107.437 32.21C107.52 32.1935 107.595 32.1513 107.649 32.0904C107.703 32.0294 107.732 31.9534 107.732 31.875C107.732 31.7967 107.703 31.7207 107.649 31.6597C107.595 31.5988 107.52 31.5565 107.437 31.5401L102.947 30.5898C102.401 30.4745 101.901 30.221 101.505 29.858C101.109 29.495 100.832 29.0372 100.706 28.537L99.6686 24.4219C99.6507 24.3454 99.6046 24.2766 99.5381 24.2274C99.4716 24.1782 99.3887 24.1514 99.3031 24.1514C99.2176 24.1514 99.1347 24.1782 99.0682 24.2274C99.0017 24.2766 98.9556 24.3454 98.9377 24.4219L97.9007 28.537C97.775 29.0379 97.4979 29.4963 97.1012 29.8596C96.7045 30.223 96.2043 30.4767 95.6576 30.5917L91.1673 31.542C91.0837 31.5585 91.0088 31.6007 90.9551 31.6616C90.9014 31.7226 90.8721 31.7986 90.8721 31.877C90.8721 31.9553 90.9014 32.0313 90.9551 32.0923C91.0088 32.1532 91.0837 32.1954 91.1673 32.2119L95.6576 33.1622C96.2035 33.2775 96.7028 33.5311 97.0989 33.8941C97.495 34.2571 97.7717 34.7147 97.8976 35.215L98.9356 39.3358C98.9535 39.4124 98.9996 39.4811 99.0661 39.5303C99.1326 39.5796 99.2155 39.6064 99.3011 39.6064C99.3866 39.6064 99.4695 39.5796 99.536 39.5303C99.6025 39.4811 99.6486 39.4124 99.6665 39.3358L100.7 35.2131Z" stroke="#121211" stroke-width="1.405" stroke-linecap="round" stroke-linejoin="round"/>
<path d="M120.652 70.0401C121.243 70.1874 121.784 70.5106 122.212 70.9728C122.641 71.435 122.941 72.0177 123.078 72.6545L124.201 77.8993C124.22 77.9968 124.27 78.0843 124.342 78.1469C124.414 78.2096 124.504 78.2437 124.597 78.2437C124.689 78.2437 124.779 78.2096 124.851 78.1469C124.923 78.0843 124.973 77.9968 124.992 77.8993L126.116 72.6606C126.252 72.0237 126.551 71.4409 126.98 70.9785C127.409 70.5163 127.95 70.1932 128.542 70.0462L133.405 68.8364C133.495 68.8154 133.577 68.7617 133.635 68.6841C133.693 68.6065 133.725 68.5098 133.725 68.41C133.725 68.3102 133.693 68.2135 133.635 68.1359C133.577 68.0583 133.495 68.0045 133.405 67.9836L128.542 66.7738C127.95 66.6271 127.408 66.3039 126.979 65.8411C126.549 65.3782 126.249 64.7947 126.113 64.1569L124.99 58.9182C124.971 58.8207 124.921 58.7333 124.849 58.6706C124.777 58.6079 124.687 58.5737 124.594 58.5737C124.502 58.5737 124.412 58.6079 124.34 58.6706C124.268 58.7333 124.218 58.8207 124.199 58.9182L123.075 64.1569C122.939 64.7937 122.639 65.3763 122.21 65.8384C121.781 66.3005 121.241 66.6233 120.649 66.7701L115.779 67.9811C115.689 68.0021 115.608 68.0558 115.55 68.1334C115.491 68.211 115.46 68.3078 115.46 68.4075C115.46 68.5073 115.491 68.6041 115.55 68.6817C115.608 68.7593 115.689 68.813 115.779 68.8339L120.652 70.0401Z" fill="white"/>
<path d="M79.1329 96.5121C79.7221 94.1933 81.0149 92.0716 82.8638 90.389C84.7127 88.7061 87.0436 87.5303 89.5908 86.9947L110.57 82.5888C110.96 82.5125 111.31 82.3168 111.56 82.0342C111.811 81.7515 111.948 81.3992 111.948 81.0358C111.948 80.6724 111.811 80.3201 111.56 80.0375C111.31 79.7549 110.96 79.5592 110.57 79.4829L89.6152 75.0769C87.0675 74.5423 84.7361 73.3669 82.8867 71.684C81.0379 70.001 79.7455 67.8788 79.1573 65.5595L74.3182 46.4804C74.2344 46.1255 74.0195 45.8069 73.709 45.5788C73.3986 45.3503 73.0117 45.2261 72.6126 45.2261C72.2135 45.2261 71.8265 45.3503 71.5161 45.5788C71.2057 45.8069 70.9908 46.1255 70.907 46.4804L66.0679 65.5595C65.4811 67.8819 64.1883 70.0072 62.3369 71.6915C60.4856 73.3762 58.1514 74.5525 55.6002 75.0858L34.6454 79.4918C34.2554 79.5681 33.9058 79.7637 33.6551 80.0464C33.4044 80.329 33.2676 80.6813 33.2676 81.0447C33.2676 81.4081 33.4044 81.7604 33.6551 82.043C33.9058 82.3257 34.2554 82.5213 34.6454 82.5977L55.6002 87.0036C58.1475 87.5383 60.4778 88.7141 62.3262 90.397C64.1746 92.08 65.466 94.2018 66.0532 96.521L70.8972 115.627C70.981 115.982 71.1959 116.3 71.5064 116.528C71.8168 116.757 72.2037 116.881 72.6028 116.881C73.0019 116.881 73.3889 116.757 73.6993 116.528C74.0097 116.3 74.2246 115.982 74.3084 115.627L79.1329 96.5121Z" stroke="#121211" stroke-width="5.62" stroke-linecap="round" stroke-linejoin="round"/>
</svg>
