<svg width="203" height="203" viewBox="0 0 203 203" fill="none" xmlns="http://www.w3.org/2000/svg">
<g filter="url(#filter0_d_3_2322)">
<circle cx="101.5" cy="97.5" r="71.5" fill="white"/>
</g>
<g clip-path="url(#clip0_3_2322)">
<path d="M102.072 152.984C133.031 152.984 158.128 127.887 158.128 96.9281C158.128 65.9692 133.031 40.8721 102.072 40.8721C71.1128 40.8721 46.0156 65.9692 46.0156 96.9281C46.0156 127.887 71.1128 152.984 102.072 152.984Z" fill="#29A71A"/>
<path d="M126.787 72.2124C120.955 66.322 113.21 62.7097 104.949 62.0269C96.6876 61.3441 88.4546 63.6358 81.7345 68.4887C75.0144 73.3416 70.2497 80.4362 68.2997 88.4927C66.3498 96.5493 67.3431 105.037 71.1003 112.426L67.4121 130.332C67.3738 130.51 67.3728 130.695 67.4089 130.873C67.4451 131.052 67.5177 131.221 67.6223 131.371C67.7755 131.597 67.9942 131.772 68.2492 131.871C68.5041 131.97 68.7832 131.989 69.0492 131.925L86.5985 127.765C93.9665 131.427 102.395 132.357 110.384 130.388C118.372 128.419 125.404 123.68 130.226 117.014C135.049 110.347 137.35 102.186 136.72 93.9824C136.09 85.7787 132.571 78.0644 126.787 72.2124ZM121.315 115.885C117.28 119.909 112.084 122.565 106.459 123.479C100.834 124.394 95.0638 123.52 89.9619 120.981L87.5158 119.771L76.7569 122.319L76.7887 122.185L79.0182 111.356L77.8207 108.993C75.2138 103.873 74.2942 98.0595 75.1936 92.3851C76.093 86.7108 78.7652 81.4666 82.8275 77.4039C87.9318 72.3012 94.8538 69.4346 102.071 69.4346C109.289 69.4346 116.211 72.3012 121.315 77.4039C121.359 77.4538 121.405 77.5006 121.455 77.544C126.496 82.6599 129.31 89.5613 129.284 96.7434C129.258 103.926 126.393 110.806 121.315 115.885Z" fill="white"/>
<path d="M120.36 107.942C119.041 110.018 116.958 112.56 114.34 113.19C109.754 114.299 102.715 113.229 93.9562 105.062L93.8479 104.967C86.1466 97.8261 84.1464 91.8828 84.6305 87.169C84.8981 84.4936 87.1276 82.073 89.0067 80.4933C89.3038 80.2397 89.6561 80.0592 90.0354 79.9661C90.4148 79.8731 90.8106 79.8701 91.1913 79.9574C91.572 80.0446 91.927 80.2198 92.2279 80.4688C92.5288 80.7178 92.7673 81.0338 92.9243 81.3914L95.7589 87.7614C95.9431 88.1745 96.0114 88.6299 95.9564 89.0788C95.9014 89.5276 95.7252 89.9531 95.4468 90.3094L94.0135 92.1695C93.706 92.5536 93.5204 93.0209 93.4807 93.5113C93.441 94.0017 93.5489 94.4928 93.7906 94.9213C94.5932 96.3291 96.5169 98.3993 98.6509 100.317C101.046 102.483 103.702 104.464 105.384 105.139C105.834 105.323 106.329 105.368 106.804 105.268C107.28 105.168 107.715 104.928 108.053 104.578L109.716 102.903C110.036 102.587 110.435 102.361 110.872 102.249C111.308 102.137 111.766 102.143 112.2 102.266L118.933 104.177C119.304 104.291 119.645 104.488 119.928 104.754C120.212 105.02 120.431 105.347 120.568 105.71C120.706 106.073 120.759 106.463 120.723 106.85C120.687 107.237 120.562 107.61 120.36 107.942Z" fill="white"/>
</g>
<defs>
<filter id="filter0_d_3_2322" x="0" y="0" width="203" height="203" filterUnits="userSpaceOnUse" color-interpolation-filters="sRGB">
<feFlood flood-opacity="0" result="BackgroundImageFix"/>
<feColorMatrix in="SourceAlpha" type="matrix" values="0 0 0 0 0 0 0 0 0 0 0 0 0 0 0 0 0 0 127 0" result="hardAlpha"/>
<feOffset dy="4"/>
<feGaussianBlur stdDeviation="15"/>
<feComposite in2="hardAlpha" operator="out"/>
<feColorMatrix type="matrix" values="0 0 0 0 0 0 0 0 0 0 0 0 0 0 0 0 0 0 0.25 0"/>
<feBlend mode="normal" in2="BackgroundImageFix" result="effect1_dropShadow_3_2322"/>
<feBlend mode="normal" in="SourceGraphic" in2="effect1_dropShadow_3_2322" result="shape"/>
</filter>
<clipPath id="clip0_3_2322">
<rect width="112.112" height="112.112" fill="white" transform="translate(46.0156 40.8721)"/>
</clipPath>
</defs>
</svg>
