<svg width="72" height="72" viewBox="0 0 72 72" fill="none" xmlns="http://www.w3.org/2000/svg">
<g clip-path="url(#clip0_3_2468)">
<path fill-rule="evenodd" clip-rule="evenodd" d="M46.3549 72.0001H24.9278C20.4147 72.0001 16.7029 68.2883 16.7029 63.7752V35.6416C16.7029 31.1284 20.4147 27.4166 24.9278 27.4166H46.3549C50.9103 27.4166 54.5799 31.1284 54.5799 35.6416V63.7752C54.5799 68.2883 50.9103 72.0001 46.3549 72.0001ZM24.9278 29.1038C21.3426 29.1038 18.3901 32.0563 18.3901 35.6416V63.7752C18.3901 67.3604 21.3426 70.3129 24.9278 70.3129H46.3549C49.9823 70.3129 52.8927 67.3604 52.8927 63.7752V35.6416C52.8927 32.0563 49.9823 29.1038 46.3549 29.1038H24.9278Z" fill="black"/>
<path fill-rule="evenodd" clip-rule="evenodd" d="M41.8417 29.1037H29.441C28.977 29.1037 28.5974 28.7241 28.5974 28.2601V14.2144C28.5974 13.7504 28.977 13.3708 29.441 13.3708H41.8417C42.3057 13.3708 42.6853 13.7504 42.6853 14.2144V28.2601C42.6853 28.7241 42.3057 29.1037 41.8417 29.1037ZM30.2846 27.4165H40.9981V15.058H30.2846V27.4165ZM41.8417 6.57997H29.441C28.977 6.57997 28.5974 6.20035 28.5974 5.73638V0.843585C28.5974 0.379613 28.977 0 29.441 0H41.8417C42.3057 0 42.6853 0.379613 42.6853 0.843585V5.73638C42.6853 6.20035 42.3057 6.57997 41.8417 6.57997ZM30.2846 4.89279H40.9981V1.68717H30.2846V4.89279Z" fill="black"/>
<path fill-rule="evenodd" clip-rule="evenodd" d="M45.0895 15.0579H26.1932C23.3672 15.0579 21.0895 12.7802 21.0895 9.95421C21.0895 7.17038 23.3672 4.8927 26.1932 4.8927H45.0895C47.9155 4.8927 50.1932 7.17038 50.1932 9.95421C50.1932 12.7802 47.9155 15.0579 45.0895 15.0579ZM26.1932 6.57987C24.2951 6.57987 22.7767 8.09832 22.7767 9.95421C22.7767 11.8523 24.2951 13.3707 26.1932 13.3707H45.0895C46.9876 13.3707 48.506 11.8523 48.506 9.95421C48.506 8.09832 46.9876 6.57987 45.0895 6.57987H26.1932ZM53.7363 61.1177H17.5465C17.0825 61.1177 16.7029 60.738 16.7029 60.2741V39.1423C16.7029 38.6783 17.0825 38.2987 17.5465 38.2987H53.7363C54.2002 38.2987 54.5799 38.6783 54.5799 39.1423V60.2741C54.5799 60.738 54.2002 61.1177 53.7363 61.1177ZM18.3901 59.4305H52.8927V39.9858H18.3901V59.4305Z" fill="black"/>
<path fill-rule="evenodd" clip-rule="evenodd" d="M35.6419 58.3338C30.8756 58.3338 26.9951 54.4533 26.9951 49.6871C26.9951 44.9208 30.8756 41.0825 35.6419 41.0825C40.4081 41.0825 44.2886 44.9208 44.2886 49.6871C44.2886 54.4533 40.4081 58.3338 35.6419 58.3338ZM35.6419 42.7697C31.8036 42.7697 28.6823 45.8488 28.6823 49.6871C28.6823 53.5254 31.8036 56.6467 35.6419 56.6467C39.4802 56.6467 42.6014 53.5254 42.6014 49.6871C42.6014 45.8488 39.4802 42.7697 35.6419 42.7697Z" fill="black"/>
<path fill-rule="evenodd" clip-rule="evenodd" d="M33.6171 53.7789C33.4062 53.7789 33.1953 53.6945 33.0266 53.5258L30.6224 51.1216C30.2849 50.7841 30.2849 50.278 30.6224 49.9406C30.9598 49.6031 31.466 49.6031 31.8034 49.9406L33.6171 51.7543L39.48 45.8913C39.8174 45.5539 40.3658 45.5539 40.661 45.8913C40.9985 46.1866 40.9985 46.7349 40.661 47.0724L34.2076 53.5258C34.0389 53.6945 33.828 53.7789 33.6171 53.7789ZM17.8421 34.4608C17.7999 34.4608 17.7999 34.4608 17.7577 34.4608C14.8051 34.2077 12.0213 32.9001 9.91235 30.7912C6.70673 27.5855 5.48353 22.9036 6.62237 18.5592C6.70673 18.2639 6.9598 18.053 7.21288 17.9687C8.30954 17.6734 9.4062 17.5469 10.5029 17.5469C13.8772 17.5469 17.0828 18.8544 19.4449 21.2165C21.5116 23.2411 22.7348 25.814 23.0723 28.6822C23.1145 29.0618 22.9036 29.3992 22.5661 29.568C20.6681 30.285 19.234 31.8878 18.6435 33.8281C18.5591 34.2077 18.2217 34.4608 17.8421 34.4608ZM8.14082 19.4871C7.33942 23.1145 8.47826 26.9529 11.0934 29.6101C12.7805 31.2551 14.9317 32.3518 17.2515 32.6892C18.0108 30.7912 19.487 29.1884 21.3008 28.2604C20.9211 26.0249 19.8667 24.0425 18.2638 22.4397C16.1971 20.3729 13.4554 19.234 10.5029 19.234C9.70146 19.234 8.94223 19.3184 8.14082 19.4871Z" fill="black"/>
<path fill-rule="evenodd" clip-rule="evenodd" d="M22.2284 29.6098C22.1018 29.6098 21.9331 29.5676 21.8066 29.4833C21.5957 29.3567 21.427 29.1458 21.427 28.8928C21.1317 26.4042 20.0351 24.1687 18.2635 22.4393C17.2512 21.427 16.0702 20.6256 14.7627 20.0773C14.383 19.9086 14.1721 19.4868 14.2565 19.065C14.847 16.9138 15.9859 14.9736 17.5465 13.3708C17.7574 13.1599 18.0526 13.0755 18.3479 13.1599C22.7345 14.3409 26.1511 17.7574 27.3321 22.1441C27.8804 24.2109 27.8804 26.4042 27.3743 28.471C27.2899 28.8506 26.9525 29.1037 26.5307 29.1037H24.9279C24.1264 29.1037 23.325 29.2724 22.5658 29.5676C22.4393 29.6098 22.3549 29.6098 22.2284 29.6098ZM16.1124 18.8119C17.3356 19.4446 18.4744 20.246 19.4446 21.2161C21.2583 23.0298 22.4393 25.2232 22.9032 27.6696C23.5781 27.5008 24.253 27.4165 24.9279 27.4165H25.8558C26.1511 25.8137 26.1089 24.1687 25.6871 22.5659C24.717 18.9384 21.9331 16.0703 18.3901 14.9314C17.3778 16.0703 16.5764 17.3778 16.1124 18.8119ZM53.6519 35.3462C53.2723 35.3462 52.9771 35.0931 52.8505 34.7557V34.7135C52.8505 34.6713 52.8083 34.6291 52.8083 34.587C52.4709 32.3515 50.9103 30.4534 48.8435 29.6098C48.4639 29.4411 48.253 29.0615 48.3373 28.6819C48.8013 25.9824 50.0667 23.536 52.0069 21.5957C54.4955 19.1072 57.7855 17.7153 61.3286 17.7153C62.4674 17.7153 63.6062 17.884 64.7451 18.1792C65.0403 18.2636 65.2512 18.4745 65.3356 18.7697C66.5588 23.3251 65.2512 28.1757 61.9191 31.5079C59.7257 33.7012 56.8154 35.0509 53.7363 35.3462C53.6941 35.3462 53.6941 35.3462 53.6519 35.3462ZM50.1089 28.3444C52.1757 29.3989 53.7363 31.297 54.3268 33.5747C56.731 33.195 58.9665 32.0562 60.738 30.3268C63.5219 27.543 64.6607 23.4938 63.8171 19.6977C63.0157 19.4868 62.1721 19.4024 61.3286 19.4024C58.2495 19.4024 55.3391 20.6256 53.188 22.7768C51.6273 24.3374 50.5728 26.2355 50.1089 28.3444Z" fill="black"/>
<path fill-rule="evenodd" clip-rule="evenodd" d="M49.1388 29.652C49.0544 29.652 48.9279 29.652 48.8435 29.6098C48.0421 29.2724 47.1985 29.1037 46.355 29.1037H44.4147C43.9929 29.1037 43.6555 28.8084 43.5711 28.4288C43.1915 26.4464 43.2759 24.4639 43.782 22.5237C45.0052 17.9683 48.5905 14.3831 53.1458 13.1599C53.4411 13.0755 53.7363 13.1599 53.9472 13.3708C55.5922 15.0158 56.7732 17.0826 57.3637 19.3181C57.4903 19.6977 57.2794 20.1195 56.8576 20.2882C55.5079 20.8787 54.2425 21.7223 53.188 22.7768C51.5008 24.4639 50.4042 26.6151 49.9824 28.9349C49.9402 29.188 49.7715 29.4411 49.5606 29.5676C49.434 29.6098 49.3075 29.652 49.1388 29.652ZM45.1318 27.4165H46.355C47.1142 27.4165 47.8312 27.5008 48.5061 27.7117C49.0966 25.3919 50.2776 23.2829 52.007 21.5957C53.0193 20.5413 54.2003 19.6977 55.5079 19.065C55.0017 17.5465 54.2003 16.1124 53.1036 14.9314C49.3497 16.1124 46.4393 19.1493 45.427 22.9455C45.0474 24.4218 44.9209 25.9402 45.1318 27.4165ZM65.42 72H6.57991C6.11594 72 5.73633 71.6203 5.73633 71.1564C5.73633 70.6924 6.11594 70.3128 6.57991 70.3128H65.42C65.884 70.3128 66.2636 70.6924 66.2636 71.1564C66.2636 71.6203 65.884 72 65.42 72Z" fill="black"/>
</g>
<defs>
<clipPath id="clip0_3_2468">
<rect width="72" height="72" fill="white"/>
</clipPath>
</defs>
</svg>
