<svg width="71" height="71" viewBox="0 0 71 71" fill="none" xmlns="http://www.w3.org/2000/svg">
<path d="M67.0169 34.1422L62.4707 28.2736L63.4736 20.9184C63.5409 20.4321 63.445 19.9372 63.2008 19.5112C62.9567 19.0852 62.5782 18.7522 62.1246 18.5644L55.2465 15.7532L52.4353 8.87507C52.2489 8.41937 51.9162 8.03863 51.4896 7.7928C51.063 7.54697 50.5667 7.45001 50.079 7.51719L42.726 8.52007L36.8575 3.99382C36.4687 3.693 35.9911 3.52979 35.4996 3.52979C35.0081 3.52979 34.5304 3.693 34.1417 3.99382L28.2731 8.52894L20.9202 7.52607C20.4335 7.45825 19.938 7.55392 19.5116 7.79807C19.0851 8.04221 18.7518 8.42102 18.5639 8.87507L15.7527 15.7532L8.87458 18.5621C8.41888 18.7481 8.03795 19.0803 7.79173 19.5065C7.54551 19.9326 7.44798 20.4286 7.51449 20.9162L8.51736 28.2714L3.99333 34.1422C3.69252 34.5309 3.5293 35.0085 3.5293 35.5001C3.5293 35.9916 3.69252 36.4692 3.99333 36.8579L8.53955 42.7265L7.53667 50.0817C7.47017 50.5694 7.5677 51.0653 7.81392 51.4915C8.06014 51.9176 8.44107 52.2498 8.89677 52.4358L15.7527 55.2469L18.5639 62.1251C18.7522 62.5794 19.0852 62.9588 19.5113 63.2043C19.9374 63.4498 20.4327 63.5478 20.9202 63.4829L28.2731 62.4801L34.1417 67.0263C34.5304 67.3271 35.0081 67.4903 35.4996 67.4903C35.9911 67.4903 36.4687 67.3271 36.8575 67.0263L42.726 62.4801L50.079 63.4829C50.5663 63.5463 51.0609 63.4477 51.4867 63.2023C51.9124 62.9569 52.2458 62.5784 52.4353 62.1251L55.2465 55.2469L62.1246 52.4358C62.5803 52.2498 62.9612 51.9176 63.2074 51.4915C63.4536 51.0653 63.5512 50.5694 63.4847 50.0817L62.4818 42.7265L67.028 36.8579C67.3272 36.468 67.4885 35.9897 67.4865 35.4982C67.4845 35.0066 67.3193 34.5297 67.0169 34.1422ZM58.3926 40.7452C58.2121 40.9784 58.0798 41.2453 58.0036 41.5303C57.9274 41.8153 57.9088 42.1126 57.9489 42.4048L58.8364 48.979L52.6971 51.4884C52.4239 51.5997 52.1757 51.7644 51.9669 51.9728C51.7582 52.1811 51.593 52.4291 51.4812 52.702L48.9696 58.8458L42.3977 57.9583C42.1054 57.9161 41.8076 57.9338 41.5224 58.01C41.2371 58.0863 40.9703 58.2197 40.738 58.402L35.4996 62.4557L30.2545 58.3909C29.8651 58.0897 29.3866 57.9266 28.8944 57.9272C28.7942 57.9274 28.6941 57.934 28.5948 57.9472L22.0229 58.8347L19.5113 52.702C19.3995 52.4291 19.2343 52.1811 19.0256 51.9728C18.8168 51.7644 18.5686 51.5997 18.2954 51.4884L12.1561 48.979L13.0436 42.4048C13.0837 42.1126 13.0651 41.8153 12.9889 41.5303C12.9127 41.2453 12.7804 40.9784 12.5999 40.7452L8.54177 35.5001L12.6065 30.2549C12.7871 30.0217 12.9193 29.7548 12.9955 29.4698C13.0717 29.1849 13.0903 28.8876 13.0503 28.5953L12.1628 22.0212L18.2954 19.5118C18.5686 19.4004 18.8168 19.2358 19.0256 19.0274C19.2343 18.819 19.3995 18.5711 19.5113 18.2981L22.0229 12.1544L28.5948 13.053C28.8871 13.093 29.1844 13.0744 29.4693 12.9982C29.7543 12.922 30.0212 12.7898 30.2545 12.6092L35.4996 8.54448L40.7447 12.6092C40.978 12.7898 41.2449 12.922 41.5298 12.9982C41.8148 13.0744 42.1121 13.093 42.4043 13.053L48.9763 12.1544L51.4879 18.2981C51.5997 18.5711 51.7648 18.819 51.9736 19.0274C52.1824 19.2358 52.4306 19.4004 52.7038 19.5118L58.843 22.0212L57.9555 28.5953C57.9155 28.8876 57.9341 29.1849 58.0103 29.4698C58.0865 29.7548 58.2187 30.0217 58.3993 30.2549L62.4574 35.5001L58.3926 40.7452ZM44.9537 26.4032C45.4244 26.7563 45.7357 27.2819 45.8189 27.8644C45.9021 28.447 45.7505 29.0387 45.3974 29.5094L34.9427 43.4876C34.7394 43.7587 34.4767 43.9796 34.1748 44.1335C33.8729 44.2873 33.5398 44.37 33.201 44.3751H33.1699C32.8364 44.375 32.5072 44.2998 32.2069 44.1549C31.9065 44.0101 31.6426 43.7994 31.4348 43.5386L25.6395 36.2655C25.4472 36.0389 25.3025 35.776 25.2138 35.4923C25.1251 35.2087 25.0943 34.9101 25.1233 34.6143C25.1522 34.3185 25.2403 34.0316 25.3822 33.7705C25.5242 33.5094 25.7171 33.2795 25.9496 33.0944C26.1822 32.9093 26.4495 32.7728 26.7358 32.693C27.022 32.6132 27.3214 32.5918 27.6161 32.6299C27.9109 32.668 28.1949 32.765 28.4515 32.915C28.708 33.065 28.9318 33.265 29.1096 33.5032L33.1144 38.5287L41.8474 26.8469C42.2005 26.3762 42.7261 26.065 43.3086 25.9817C43.8912 25.8985 44.4829 26.0501 44.9537 26.4032Z" fill="white"/>
</svg>
