<svg width="70" height="70" viewBox="0 0 70 70" fill="none" xmlns="http://www.w3.org/2000/svg">
<path d="M12.6388 11.9363C12.7234 11.5694 12.9094 11.2336 13.1756 10.9673C13.4418 10.701 13.7774 10.5148 14.1443 10.4301L17.1664 9.73285C17.2219 9.72023 17.2715 9.68919 17.3071 9.64471C17.3426 9.60023 17.362 9.54499 17.362 9.48802C17.362 9.43106 17.3426 9.37582 17.3071 9.33133C17.2715 9.28685 17.2219 9.25575 17.1664 9.24319L14.1443 8.54595C13.7775 8.46119 13.4418 8.27519 13.1755 8.00899C12.9092 7.74285 12.723 7.40726 12.6381 7.04043L11.9409 4.01974C11.928 3.96455 11.8969 3.91533 11.8525 3.8801C11.8081 3.84486 11.7531 3.82568 11.6964 3.82568C11.6397 3.82568 11.5848 3.84486 11.5403 3.8801C11.4959 3.91533 11.4648 3.96455 11.4519 4.01974L10.7547 7.04043C10.6701 7.40747 10.484 7.74326 10.2176 8.00961C9.9513 8.27588 9.61551 8.46202 9.24847 8.54664L6.22779 9.24319C6.17225 9.25575 6.12265 9.28685 6.08712 9.33133C6.05159 9.37582 6.03223 9.43106 6.03223 9.48802C6.03223 9.54499 6.05159 9.60023 6.08712 9.64471C6.12265 9.68919 6.17225 9.72023 6.22779 9.73285L9.24847 10.4301C9.61544 10.5148 9.95123 10.7009 10.2176 10.9672C10.4839 11.2335 10.67 11.5693 10.7547 11.9363L11.4519 14.9584C11.4648 15.0135 11.4959 15.0628 11.5403 15.098C11.5848 15.1333 11.6397 15.1524 11.6964 15.1524C11.7531 15.1524 11.8081 15.1333 11.8525 15.098C11.8969 15.0628 11.928 15.0135 11.9409 14.9584L12.6388 11.9363Z" fill="url(#paint0_linear_8_1652)"/>
<path d="M60.1435 22.1813L60.9318 24.5462C60.9465 24.5904 60.9748 24.6288 61.0126 24.6561C61.0505 24.6834 61.0959 24.698 61.1425 24.698C61.1891 24.698 61.2345 24.6834 61.2723 24.6561C61.3102 24.6288 61.3385 24.5904 61.3532 24.5462L62.0014 22.6027C62.045 22.4719 62.1183 22.3529 62.2158 22.2553C62.3132 22.1578 62.4321 22.0843 62.5628 22.0406L64.5063 21.393C64.5505 21.3783 64.589 21.35 64.6163 21.3122C64.6435 21.2744 64.6582 21.229 64.6582 21.1824C64.6582 21.1357 64.6435 21.0903 64.6163 21.0525C64.589 21.0147 64.5505 20.9864 64.5063 20.9717L62.5628 20.3241C62.4321 20.2804 62.3132 20.2069 62.2158 20.1093C62.1183 20.0118 62.045 19.8928 62.0014 19.762L61.3532 17.8179C61.3385 17.7737 61.3102 17.7352 61.2723 17.7079C61.2345 17.6806 61.1891 17.666 61.1425 17.666C61.0959 17.666 61.0505 17.6806 61.0126 17.7079C60.9748 17.7352 60.9465 17.7737 60.9318 17.8179L60.2842 19.762C60.2405 19.8928 60.167 20.0117 60.0694 20.1093C59.9719 20.2068 59.853 20.2804 59.7221 20.3241L57.7773 20.9717C57.7331 20.9864 57.6946 21.0147 57.6674 21.0525C57.6401 21.0903 57.6254 21.1357 57.6254 21.1824C57.6254 21.229 57.6401 21.2744 57.6674 21.3122C57.6946 21.35 57.7331 21.3783 57.7773 21.393L60.1435 22.1813Z" fill="url(#paint1_linear_8_1652)"/>
<path d="M14.2101 44.6234L11.8459 45.4117C11.8017 45.4265 11.7632 45.4548 11.736 45.4926C11.7087 45.5303 11.6941 45.5758 11.6941 45.6224C11.6941 45.669 11.7087 45.7145 11.736 45.7523C11.7632 45.7901 11.8017 45.8184 11.8459 45.8331L13.7894 46.4807C13.9201 46.5243 14.0388 46.5977 14.1363 46.6952C14.2337 46.7926 14.3071 46.9114 14.3508 47.0421L14.999 48.9855C15.0138 49.0297 15.0421 49.0682 15.0799 49.0955C15.1177 49.1228 15.1631 49.1375 15.2097 49.1375C15.2563 49.1375 15.3018 49.1228 15.3396 49.0955C15.3774 49.0682 15.4057 49.0297 15.4204 48.9855L16.068 47.0428C16.1115 46.9119 16.1848 46.793 16.2823 46.6954C16.3797 46.5979 16.4986 46.5243 16.6294 46.4807L18.5742 45.8331C18.6184 45.8184 18.6569 45.7901 18.6841 45.7523C18.7115 45.7145 18.7261 45.669 18.7261 45.6224C18.7261 45.5758 18.7115 45.5303 18.6841 45.4926C18.6569 45.4548 18.6184 45.4265 18.5742 45.4117L16.6301 44.7635C16.4992 44.72 16.3803 44.6466 16.2828 44.5492C16.1852 44.4517 16.1117 44.3329 16.068 44.2021L15.4204 42.2572C15.4057 42.213 15.3774 42.1746 15.3396 42.1473C15.3018 42.12 15.2564 42.1054 15.2097 42.1054C15.1631 42.1054 15.1177 42.12 15.0799 42.1473C15.0421 42.1746 15.0138 42.213 14.999 42.2572L14.2101 44.6234Z" fill="url(#paint2_linear_8_1652)"/>
<g clip-path="url(#clip0_8_1652)">
<path d="M56.7362 27.3713L53.6009 23.324L54.2925 18.2515C54.339 17.916 54.2728 17.5747 54.1044 17.2809C53.9361 16.9871 53.675 16.7575 53.3622 16.6279L48.6187 14.6892L46.6799 9.94568C46.5514 9.63141 46.3219 9.36883 46.0277 9.19929C45.7335 9.02975 45.3913 8.96288 45.0549 9.00921L39.9839 9.70085L35.9366 6.5793C35.6685 6.37184 35.3391 6.25928 35.0001 6.25928C34.6611 6.25928 34.3318 6.37184 34.0637 6.5793L30.0164 9.70697L24.9454 9.01534C24.6097 8.96856 24.268 9.03454 23.9739 9.20292C23.6798 9.3713 23.4499 9.63255 23.3203 9.94568L21.3816 14.6892L16.6381 16.6264C16.3238 16.7547 16.0611 16.9838 15.8913 17.2777C15.7215 17.5716 15.6542 17.9136 15.7001 18.2499L16.3917 23.3224L13.2717 27.3713C13.0642 27.6394 12.9517 27.9688 12.9517 28.3077C12.9517 28.6467 13.0642 28.9761 13.2717 29.2442L16.407 33.2915L15.7154 38.364C15.6695 38.7004 15.7368 39.0424 15.9066 39.3363C16.0764 39.6302 16.3391 39.8593 16.6534 39.9876L21.3816 41.9263L23.3203 46.6698C23.4502 46.9831 23.6799 47.2448 23.9738 47.4141C24.2676 47.5835 24.6092 47.651 24.9454 47.6063L30.0164 46.9146L34.0637 50.05C34.3318 50.2574 34.6611 50.37 35.0001 50.37C35.3391 50.37 35.6685 50.2574 35.9366 50.05L39.9839 46.9146L45.0549 47.6063C45.391 47.65 45.7321 47.5819 46.0257 47.4127C46.3193 47.2435 46.5492 46.9825 46.6799 46.6698L48.6187 41.9263L53.3622 39.9876C53.6765 39.8593 53.9392 39.6302 54.109 39.3363C54.2788 39.0424 54.3461 38.7004 54.3002 38.364L53.6086 33.2915L56.7439 29.2442C56.9502 28.9753 57.0615 28.6454 57.0601 28.3064C57.0587 27.9675 56.9448 27.6385 56.7362 27.3713ZM50.7884 31.9251C50.6639 32.0859 50.5727 32.27 50.5202 32.4665C50.4676 32.6631 50.4548 32.8681 50.4824 33.0696L51.0945 37.6035L46.8605 39.3342C46.6721 39.4109 46.5009 39.5245 46.3569 39.6682C46.213 39.8119 46.0991 39.9829 46.022 40.1712L44.2898 44.4082L39.7574 43.7962C39.5559 43.7671 39.3505 43.7793 39.1538 43.8319C38.9571 43.8845 38.773 43.9764 38.6129 44.1022L35.0001 46.8978L31.3828 44.0945C31.1143 43.8868 30.7843 43.7743 30.4448 43.7747C30.3757 43.7748 30.3067 43.7794 30.2382 43.7885L25.7059 44.4006L23.9737 40.1712C23.8966 39.9829 23.7827 39.8119 23.6387 39.6682C23.4948 39.5245 23.3236 39.4109 23.1352 39.3342L18.9012 37.6035L19.5133 33.0696C19.5409 32.8681 19.5281 32.6631 19.4755 32.4665C19.423 32.27 19.3318 32.0859 19.2072 31.9251L16.4085 28.3077L19.2118 24.6904C19.3363 24.5296 19.4276 24.3455 19.4801 24.149C19.5326 23.9524 19.5455 23.7474 19.5178 23.5459L18.9058 19.012L23.1352 17.2813C23.3236 17.2046 23.4948 17.091 23.6387 16.9473C23.7827 16.8036 23.8966 16.6326 23.9737 16.4443L25.7059 12.2073L30.2382 12.827C30.4398 12.8546 30.6448 12.8418 30.8413 12.7892C31.0379 12.7367 31.2219 12.6455 31.3828 12.521L35.0001 9.71768L38.6175 12.521C38.7783 12.6455 38.9624 12.7367 39.1589 12.7892C39.3554 12.8418 39.5605 12.8546 39.762 12.827L44.2944 12.2073L46.0266 16.4443C46.1037 16.6326 46.2175 16.8036 46.3615 16.9473C46.5055 17.091 46.6767 17.2046 46.8651 17.2813L51.0991 19.012L50.487 23.5459C50.4594 23.7474 50.4722 23.9524 50.5248 24.149C50.5773 24.3455 50.6685 24.5296 50.793 24.6904L53.5917 28.3077L50.7884 31.9251ZM41.5202 22.034C41.8449 22.2775 42.0595 22.64 42.1169 23.0418C42.1743 23.4435 42.0697 23.8516 41.8262 24.1763L34.6161 33.8164C34.4759 34.0033 34.2947 34.1557 34.0865 34.2618C33.8783 34.3679 33.6485 34.4249 33.4149 34.4284H33.3935C33.1635 34.4284 32.9365 34.3765 32.7293 34.2766C32.5221 34.1767 32.3401 34.0315 32.1969 33.8516L28.2 28.8357C28.0675 28.6794 27.9676 28.498 27.9065 28.3024C27.8453 28.1068 27.8241 27.9009 27.8441 27.6969C27.864 27.4929 27.9247 27.295 28.0226 27.1149C28.1205 26.9349 28.2536 26.7763 28.414 26.6487C28.5743 26.521 28.7587 26.4269 28.9561 26.3719C29.1535 26.3168 29.36 26.302 29.5633 26.3283C29.7665 26.3546 29.9625 26.4215 30.1394 26.5249C30.3163 26.6284 30.4706 26.7663 30.5932 26.9306L33.3552 30.3964L39.378 22.3401C39.6214 22.0154 39.9839 21.8008 40.3857 21.7434C40.7874 21.686 41.1955 21.7905 41.5202 22.034Z" fill="black"/>
</g>
<defs>
<linearGradient id="paint0_linear_8_1652" x1="6.03223" y1="9.97838" x2="17.362" y2="9.97838" gradientUnits="userSpaceOnUse">
<stop offset="0.0729167" stop-color="#E3A455"/>
<stop offset="0.244792" stop-color="#F6DBA6"/>
<stop offset="0.434957" stop-color="#FFEBC4"/>
<stop offset="0.532623" stop-color="#F0BE79"/>
<stop offset="0.682292" stop-color="#8F653B"/>
<stop offset="0.838542" stop-color="#BA7F3B"/>
<stop offset="1" stop-color="#EEBC70"/>
</linearGradient>
<linearGradient id="paint1_linear_8_1652" x1="60.838" y1="17.666" x2="60.838" y2="24.698" gradientUnits="userSpaceOnUse">
<stop offset="0.0729167" stop-color="#E3A455"/>
<stop offset="0.244792" stop-color="#F6DBA6"/>
<stop offset="0.434957" stop-color="#FFEBC4"/>
<stop offset="0.532623" stop-color="#F0BE79"/>
<stop offset="0.682292" stop-color="#8F653B"/>
<stop offset="0.838542" stop-color="#BA7F3B"/>
<stop offset="1" stop-color="#EEBC70"/>
</linearGradient>
<linearGradient id="paint2_linear_8_1652" x1="18.7261" y1="45.3176" x2="11.6941" y2="45.3176" gradientUnits="userSpaceOnUse">
<stop offset="0.0729167" stop-color="#E3A455"/>
<stop offset="0.244792" stop-color="#F6DBA6"/>
<stop offset="0.434957" stop-color="#FFEBC4"/>
<stop offset="0.532623" stop-color="#F0BE79"/>
<stop offset="0.682292" stop-color="#8F653B"/>
<stop offset="0.838542" stop-color="#BA7F3B"/>
<stop offset="1" stop-color="#EEBC70"/>
</linearGradient>
<clipPath id="clip0_8_1652">
<rect width="48.9655" height="48.9655" fill="white" transform="translate(10.5176 3.82495)"/>
</clipPath>
</defs>
</svg>
