<svg width="70" height="70" viewBox="0 0 70 70" fill="none" xmlns="http://www.w3.org/2000/svg">
<path d="M12.6383 12.3159C12.7229 11.949 12.9089 11.6132 13.1751 11.3469C13.4413 11.0806 13.777 10.8945 14.1438 10.8097L17.1659 10.1125C17.2214 10.0999 17.271 10.0688 17.3066 10.0244C17.3421 9.97987 17.3615 9.92463 17.3615 9.86766C17.3615 9.8107 17.3421 9.75545 17.3066 9.71097C17.271 9.66649 17.2214 9.63538 17.1659 9.62283L14.1438 8.92559C13.777 8.84083 13.4413 8.65483 13.175 8.38863C12.9087 8.12249 12.7225 7.7869 12.6376 7.42007L11.9404 4.39938C11.9275 4.34418 11.8964 4.29497 11.852 4.25974C11.8076 4.2245 11.7526 4.20532 11.6959 4.20532C11.6392 4.20532 11.5843 4.2245 11.5398 4.25974C11.4954 4.29497 11.4643 4.34418 11.4514 4.39938L10.7542 7.42007C10.6696 7.78711 10.4835 8.1229 10.2172 8.38925C9.95081 8.65552 9.61502 8.84166 9.24799 8.92628L6.2273 9.62283C6.17177 9.63538 6.12217 9.66649 6.08663 9.71097C6.0511 9.75545 6.03174 9.8107 6.03174 9.86766C6.03174 9.92463 6.0511 9.97987 6.08663 10.0244C6.12217 10.0688 6.17177 10.0999 6.2273 10.1125L9.24799 10.8097C9.61495 10.8944 9.95075 11.0806 10.2171 11.3468C10.4834 11.6132 10.6695 11.949 10.7542 12.3159L11.4514 15.338C11.4643 15.3932 11.4954 15.4424 11.5398 15.4777C11.5843 15.5129 11.6392 15.5321 11.6959 15.5321C11.7526 15.5321 11.8076 15.5129 11.852 15.4777C11.8964 15.4424 11.9275 15.3932 11.9404 15.338L12.6383 12.3159Z" fill="url(#paint0_linear_8_1621)"/>
<path d="M60.143 22.561L60.9313 24.9258C60.9461 24.97 60.9743 25.0085 61.0121 25.0357C61.05 25.063 61.0954 25.0777 61.142 25.0777C61.1886 25.0777 61.2341 25.063 61.2719 25.0357C61.3097 25.0085 61.338 24.97 61.3527 24.9258L62.001 22.9823C62.0445 22.8515 62.1179 22.7326 62.2153 22.635C62.3127 22.5374 62.4316 22.4639 62.5623 22.4203L64.5058 21.7727C64.5501 21.7579 64.5885 21.7297 64.6158 21.6919C64.643 21.6541 64.6577 21.6086 64.6577 21.562C64.6577 21.5154 64.643 21.4699 64.6158 21.4321C64.5885 21.3943 64.5501 21.3661 64.5058 21.3513L62.5623 20.7037C62.4316 20.6601 62.3127 20.5866 62.2153 20.489C62.1179 20.3914 62.0445 20.2725 62.001 20.1417L61.3527 18.1975C61.338 18.1533 61.3097 18.1148 61.2719 18.0876C61.2341 18.0603 61.1886 18.0457 61.142 18.0457C61.0954 18.0457 61.05 18.0603 61.0121 18.0876C60.9743 18.1148 60.9461 18.1533 60.9313 18.1975L60.2837 20.1417C60.24 20.2725 60.1665 20.3914 60.0689 20.4889C59.9714 20.5864 59.8525 20.66 59.7216 20.7037L57.7768 21.3513C57.7326 21.3661 57.6941 21.3943 57.6669 21.4321C57.6396 21.4699 57.625 21.5154 57.625 21.562C57.625 21.6086 57.6396 21.6541 57.6669 21.6919C57.6941 21.7297 57.7326 21.7579 57.7768 21.7727L60.143 22.561Z" fill="url(#paint1_linear_8_1621)"/>
<path d="M14.2096 45.0031L11.8454 45.7914C11.8012 45.8061 11.7628 45.8344 11.7355 45.8722C11.7082 45.91 11.6936 45.9554 11.6936 46.0021C11.6936 46.0487 11.7082 46.0941 11.7355 46.1319C11.7628 46.1697 11.8012 46.1981 11.8454 46.2127L13.7889 46.8603C13.9196 46.904 14.0383 46.9774 14.1358 47.0748C14.2332 47.1723 14.3066 47.291 14.3503 47.4217L14.9986 49.3652C15.0133 49.4094 15.0416 49.4478 15.0794 49.4752C15.1172 49.5024 15.1626 49.5171 15.2092 49.5171C15.2559 49.5171 15.3013 49.5024 15.3391 49.4752C15.3769 49.4478 15.4052 49.4094 15.4199 49.3652L16.0675 47.4224C16.111 47.2916 16.1843 47.1726 16.2818 47.0751C16.3792 46.9775 16.4981 46.904 16.6289 46.8603L18.5737 46.2127C18.6179 46.1981 18.6564 46.1697 18.6837 46.1319C18.711 46.0941 18.7256 46.0487 18.7256 46.0021C18.7256 45.9554 18.711 45.91 18.6837 45.8722C18.6564 45.8344 18.6179 45.8061 18.5737 45.7914L16.6296 45.1431C16.4988 45.0996 16.3798 45.0263 16.2823 44.9288C16.1847 44.8314 16.1112 44.7125 16.0675 44.5817L15.4199 42.6369C15.4052 42.5927 15.3769 42.5542 15.3391 42.5269C15.3013 42.4996 15.2559 42.485 15.2092 42.485C15.1626 42.485 15.1172 42.4996 15.0794 42.5269C15.0416 42.5542 15.0133 42.5927 14.9986 42.6369L14.2096 45.0031Z" fill="url(#paint2_linear_8_1621)"/>
<g clip-path="url(#clip0_8_1621)">
<path fill-rule="evenodd" clip-rule="evenodd" d="M43.1757 53.8598H28.3985C25.2859 53.8598 22.7261 51.2999 22.7261 48.1874V28.7849C22.7261 25.6724 25.2859 23.1125 28.3985 23.1125H43.1757C46.3174 23.1125 48.8481 25.6724 48.8481 28.7849V48.1874C48.8481 51.2999 46.3174 53.8598 43.1757 53.8598ZM28.3985 24.2761C25.9259 24.2761 23.8896 26.3124 23.8896 28.7849V48.1874C23.8896 50.66 25.9259 52.6962 28.3985 52.6962H43.1757C45.6774 52.6962 47.6846 50.66 47.6846 48.1874V28.7849C47.6846 26.3124 45.6774 24.2761 43.1757 24.2761H28.3985Z" fill="black"/>
<path fill-rule="evenodd" clip-rule="evenodd" d="M40.0627 24.2761H31.5105C31.1905 24.2761 30.9287 24.0143 30.9287 23.6943V14.0076C30.9287 13.6877 31.1905 13.4258 31.5105 13.4258H40.0627C40.3827 13.4258 40.6445 13.6877 40.6445 14.0076V23.6943C40.6445 24.0143 40.3827 24.2761 40.0627 24.2761ZM32.0923 23.1125H39.4809V14.5894H32.0923V23.1125ZM40.0627 8.7425H31.5105C31.1905 8.7425 30.9287 8.48069 30.9287 8.16071V4.78637C30.9287 4.46639 31.1905 4.20459 31.5105 4.20459H40.0627C40.3827 4.20459 40.6445 4.46639 40.6445 4.78637V8.16071C40.6445 8.48069 40.3827 8.7425 40.0627 8.7425ZM32.0923 7.57893H39.4809V5.36816H32.0923V7.57893Z" fill="black"/>
<path fill-rule="evenodd" clip-rule="evenodd" d="M42.3031 14.5893H29.2711C27.3222 14.5893 25.7513 13.0185 25.7513 11.0696C25.7513 9.14967 27.3222 7.57886 29.2711 7.57886H42.3031C44.252 7.57886 45.8229 9.14967 45.8229 11.0696C45.8229 13.0185 44.252 14.5893 42.3031 14.5893ZM29.2711 8.74242C27.9621 8.74242 26.9149 9.78963 26.9149 11.0696C26.9149 12.3786 27.9621 13.4258 29.2711 13.4258H42.3031C43.6121 13.4258 44.6593 12.3786 44.6593 11.0696C44.6593 9.78963 43.6121 8.74242 42.3031 8.74242H29.2711ZM48.2663 46.3547H23.3079C22.9879 46.3547 22.7261 46.0929 22.7261 45.7729V31.1992C22.7261 30.8793 22.9879 30.6175 23.3079 30.6175H48.2663C48.5863 30.6175 48.8481 30.8793 48.8481 31.1992V45.7729C48.8481 46.0929 48.5863 46.3547 48.2663 46.3547ZM23.8896 45.1911H47.6846V31.781H23.8896V45.1911Z" fill="black"/>
<path fill-rule="evenodd" clip-rule="evenodd" d="M35.787 44.4348C32.4999 44.4348 29.8237 41.7586 29.8237 38.4715C29.8237 35.1845 32.4999 32.5374 35.787 32.5374C39.0741 32.5374 41.7503 35.1845 41.7503 38.4715C41.7503 41.7586 39.0741 44.4348 35.787 44.4348ZM35.787 33.7009C33.1399 33.7009 30.9873 35.8244 30.9873 38.4715C30.9873 41.1187 33.1399 43.2713 35.787 43.2713C38.4341 43.2713 40.5867 41.1187 40.5867 38.4715C40.5867 35.8244 38.4341 33.7009 35.787 33.7009Z" fill="black"/>
<path fill-rule="evenodd" clip-rule="evenodd" d="M34.3907 41.2935C34.2452 41.2935 34.0998 41.2353 33.9834 41.119L32.3254 39.4609C32.0926 39.2282 32.0926 38.8791 32.3254 38.6464C32.5581 38.4137 32.9071 38.4137 33.1398 38.6464L34.3907 39.8972L38.4341 35.8538C38.6668 35.6211 39.0449 35.6211 39.2486 35.8538C39.4813 36.0574 39.4813 36.4356 39.2486 36.6683L34.7979 41.119C34.6816 41.2353 34.5361 41.2935 34.3907 41.2935ZM23.5113 27.9707C23.4822 27.9707 23.4822 27.9707 23.4532 27.9707C21.4169 27.7961 19.497 26.8944 18.0426 25.4399C15.8318 23.2291 14.9882 20.0002 15.7736 17.004C15.8318 16.8004 16.0063 16.655 16.1809 16.5968C16.9372 16.3932 17.6935 16.3059 18.4498 16.3059C20.777 16.3059 22.9877 17.2077 24.6167 18.8367C26.0421 20.2329 26.8857 22.0074 27.1184 23.9854C27.1475 24.2472 27.002 24.48 26.7693 24.5963C25.4603 25.0908 24.4713 26.1962 24.064 27.5343C24.0059 27.7961 23.7731 27.9707 23.5113 27.9707ZM16.8208 17.644C16.2681 20.1457 17.0535 22.7928 18.8571 24.6254C20.0206 25.7599 21.5042 26.5162 23.1041 26.7489C23.6277 25.4399 24.6458 24.3345 25.8966 23.6946C25.6348 22.1528 24.9076 20.7856 23.8022 19.6802C22.3769 18.2549 20.4861 17.4695 18.4498 17.4695C17.8971 17.4695 17.3735 17.5277 16.8208 17.644Z" fill="black"/>
<path fill-rule="evenodd" clip-rule="evenodd" d="M26.5365 24.6251C26.4492 24.6251 26.3328 24.596 26.2456 24.5379C26.1001 24.4506 25.9838 24.3051 25.9838 24.1306C25.7801 22.4143 25.0238 20.8726 23.8021 19.68C23.1039 18.9818 22.2894 18.4291 21.3877 18.051C21.1259 17.9346 20.9804 17.6437 21.0386 17.3528C21.4459 15.8693 22.2313 14.5312 23.3076 13.4258C23.453 13.2804 23.6566 13.2222 23.8603 13.2804C26.8855 14.0948 29.2418 16.4511 30.0562 19.4763C30.4344 20.9017 30.4344 22.4143 30.0853 23.8397C30.0272 24.1015 29.7944 24.276 29.5036 24.276H28.3982C27.8455 24.276 27.2928 24.3924 26.7692 24.596C26.6819 24.6251 26.6237 24.6251 26.5365 24.6251ZM22.3185 17.1783C23.1621 17.6146 23.9475 18.1673 24.6166 18.8364C25.8674 20.0872 26.6819 21.5998 27.0019 23.287C27.4673 23.1707 27.9327 23.1125 28.3982 23.1125H29.0381C29.2418 22.0071 29.2127 20.8726 28.9218 19.7672C28.2527 17.2656 26.3328 15.2875 23.8893 14.5021C23.1912 15.2875 22.6385 16.1893 22.3185 17.1783ZM48.2079 28.5812C47.9461 28.5812 47.7424 28.4067 47.6552 28.174V28.1449C47.6552 28.1158 47.6261 28.0867 47.6261 28.0576C47.3934 26.5159 46.3171 25.2069 44.8917 24.6251C44.6299 24.5088 44.4845 24.247 44.5426 23.9852C44.8626 22.1235 45.7353 20.4363 47.0734 19.0982C48.7897 17.3819 51.0586 16.422 53.5021 16.422C54.2875 16.422 55.0729 16.5383 55.8583 16.742C56.0619 16.8001 56.2074 16.9456 56.2656 17.1492C57.1092 20.2908 56.2074 23.6361 53.9093 25.9341C52.3967 27.4468 50.3896 28.3776 48.2661 28.5812C48.237 28.5812 48.237 28.5812 48.2079 28.5812ZM45.7644 23.7524C47.1898 24.4797 48.2661 25.7887 48.6733 27.3595C50.3314 27.0977 51.8731 26.3123 53.0948 25.1196C55.0147 23.1998 55.8001 20.4072 55.2184 17.7892C54.6657 17.6437 54.0839 17.5855 53.5021 17.5855C51.3786 17.5855 49.3714 18.4291 47.8879 19.9127C46.8116 20.989 46.0844 22.298 45.7644 23.7524Z" fill="black"/>
<path fill-rule="evenodd" clip-rule="evenodd" d="M45.0953 24.6542C45.0371 24.6542 44.9499 24.6542 44.8917 24.6251C44.339 24.3924 43.7572 24.2761 43.1754 24.2761H41.8373C41.5465 24.2761 41.3137 24.0724 41.2556 23.8106C40.9938 22.4434 41.0519 21.0762 41.401 19.7381C42.2446 16.5965 44.7172 14.1239 47.8588 13.2804C48.0624 13.2222 48.266 13.2804 48.4115 13.4258C49.546 14.5603 50.3605 15.9856 50.7677 17.5274C50.855 17.7892 50.7095 18.0801 50.4186 18.1964C49.4878 18.6037 48.6151 19.1854 47.8879 19.9127C46.7243 21.0762 45.968 22.5598 45.6771 24.1597C45.648 24.3342 45.5317 24.5088 45.3862 24.596C45.299 24.6251 45.2117 24.6542 45.0953 24.6542ZM42.3319 23.1125H43.1754C43.699 23.1125 44.1936 23.1707 44.659 23.3161C45.0662 21.7162 45.8807 20.2617 47.0734 19.0982C47.7715 18.371 48.586 17.7892 49.4878 17.3528C49.1387 16.3056 48.586 15.3166 47.8297 14.5021C45.2408 15.3166 43.2336 17.411 42.5355 20.029C42.2737 21.0472 42.1864 22.0944 42.3319 23.1125ZM56.3237 53.8597H15.7444C15.4244 53.8597 15.1626 53.5979 15.1626 53.2779C15.1626 52.958 15.4244 52.6961 15.7444 52.6961H56.3237C56.6437 52.6961 56.9055 52.958 56.9055 53.2779C56.9055 53.5979 56.6437 53.8597 56.3237 53.8597Z" fill="black"/>
</g>
<defs>
<linearGradient id="paint0_linear_8_1621" x1="6.03174" y1="10.358" x2="17.3615" y2="10.358" gradientUnits="userSpaceOnUse">
<stop offset="0.0729167" stop-color="#E3A455"/>
<stop offset="0.244792" stop-color="#F6DBA6"/>
<stop offset="0.434957" stop-color="#FFEBC4"/>
<stop offset="0.532623" stop-color="#F0BE79"/>
<stop offset="0.682292" stop-color="#8F653B"/>
<stop offset="0.838542" stop-color="#BA7F3B"/>
<stop offset="1" stop-color="#EEBC70"/>
</linearGradient>
<linearGradient id="paint1_linear_8_1621" x1="60.8375" y1="18.0457" x2="60.8375" y2="25.0777" gradientUnits="userSpaceOnUse">
<stop offset="0.0729167" stop-color="#E3A455"/>
<stop offset="0.244792" stop-color="#F6DBA6"/>
<stop offset="0.434957" stop-color="#FFEBC4"/>
<stop offset="0.532623" stop-color="#F0BE79"/>
<stop offset="0.682292" stop-color="#8F653B"/>
<stop offset="0.838542" stop-color="#BA7F3B"/>
<stop offset="1" stop-color="#EEBC70"/>
</linearGradient>
<linearGradient id="paint2_linear_8_1621" x1="18.7256" y1="45.6973" x2="11.6936" y2="45.6973" gradientUnits="userSpaceOnUse">
<stop offset="0.0729167" stop-color="#E3A455"/>
<stop offset="0.244792" stop-color="#F6DBA6"/>
<stop offset="0.434957" stop-color="#FFEBC4"/>
<stop offset="0.532623" stop-color="#F0BE79"/>
<stop offset="0.682292" stop-color="#8F653B"/>
<stop offset="0.838542" stop-color="#BA7F3B"/>
<stop offset="1" stop-color="#EEBC70"/>
</linearGradient>
<clipPath id="clip0_8_1621">
<rect width="49.6552" height="49.6552" fill="white" transform="translate(11.2065 4.20459)"/>
</clipPath>
</defs>
</svg>
