<svg width="139" height="132" viewBox="0 0 139 132" fill="none" xmlns="http://www.w3.org/2000/svg">
<path d="M23.5705 23.3823C23.7415 22.6402 24.1178 21.9609 24.6562 21.4222C25.1947 20.8836 25.8737 20.5071 26.6158 20.3356L32.7287 18.9253C32.841 18.8998 32.9413 18.837 33.0133 18.747C33.0851 18.657 33.1243 18.5453 33.1243 18.4301C33.1243 18.3148 33.0851 18.2031 33.0133 18.1131C32.9413 18.0231 32.841 17.9602 32.7287 17.9348L26.6158 16.5245C25.8738 16.353 25.1947 15.9768 24.6561 15.4383C24.1175 14.9 23.7408 14.2212 23.5691 13.4792L22.1588 7.36909C22.1327 7.25745 22.0698 7.1579 21.9799 7.08663C21.8901 7.01536 21.7789 6.97656 21.6643 6.97656C21.5496 6.97656 21.4384 7.01536 21.3486 7.08663C21.2587 7.1579 21.1958 7.25745 21.1697 7.36909L19.7594 13.4792C19.5882 14.2216 19.2118 14.9008 18.6731 15.4396C18.1343 15.9782 17.4551 16.3547 16.7127 16.5259L10.6026 17.9348C10.4903 17.9602 10.3899 18.0231 10.3181 18.1131C10.2462 18.2031 10.207 18.3148 10.207 18.4301C10.207 18.5453 10.2462 18.657 10.3181 18.747C10.3899 18.837 10.4903 18.8998 10.6026 18.9253L16.7127 20.3356C17.455 20.5069 18.1342 20.8834 18.673 21.4221C19.2116 21.9608 19.5881 22.64 19.7594 23.3823L21.1697 29.4952C21.1958 29.6068 21.2587 29.7064 21.3486 29.7777C21.4384 29.849 21.5496 29.8877 21.6643 29.8877C21.7789 29.8877 21.8901 29.849 21.9799 29.7777C22.0698 29.7064 22.1327 29.6068 22.1588 29.4952L23.5705 23.3823Z" fill="white"/>
<path d="M119.661 44.105L121.255 48.8885C121.285 48.9779 121.342 49.0557 121.419 49.1108C121.495 49.1661 121.587 49.1957 121.682 49.1957C121.776 49.1957 121.868 49.1661 121.944 49.1108C122.021 49.0557 122.078 48.9779 122.108 48.8885L123.419 44.9574C123.507 44.6927 123.655 44.4521 123.853 44.2547C124.05 44.0575 124.29 43.9087 124.555 43.8204L128.486 42.5105C128.575 42.4807 128.653 42.4235 128.708 42.347C128.763 42.2706 128.793 42.1787 128.793 42.0844C128.793 41.9901 128.763 41.8981 128.708 41.8217C128.653 41.7452 128.575 41.688 128.486 41.6582L124.555 40.3483C124.29 40.26 124.05 40.1113 123.853 39.9139C123.655 39.7166 123.507 39.476 123.419 39.2114L122.108 35.2789C122.078 35.1894 122.021 35.1116 121.944 35.0565C121.868 35.0013 121.776 34.9717 121.682 34.9717C121.587 34.9717 121.495 35.0013 121.419 35.0565C121.342 35.1116 121.285 35.1894 121.255 35.2789L119.945 39.2114C119.857 39.476 119.708 39.7165 119.511 39.9137C119.314 40.111 119.073 40.2598 118.809 40.3483L114.875 41.6582C114.785 41.688 114.707 41.7452 114.652 41.8217C114.597 41.8981 114.567 41.9901 114.567 42.0844C114.567 42.1787 114.597 42.2706 114.652 42.347C114.707 42.4235 114.785 42.4807 114.875 42.5105L119.661 44.105Z" fill="white"/>
<path d="M26.7491 89.5002L21.967 91.0947C21.8776 91.1245 21.7997 91.1817 21.7446 91.2581C21.6894 91.3346 21.6598 91.4265 21.6598 91.5208C21.6598 91.6151 21.6894 91.7071 21.7446 91.7835C21.7997 91.8599 21.8776 91.9173 21.967 91.947L25.8981 93.2569C26.1625 93.3452 26.4027 93.4936 26.5998 93.6907C26.7969 93.8879 26.9453 94.1281 27.0336 94.3924L28.3449 98.3235C28.3748 98.413 28.432 98.4908 28.5084 98.546C28.5849 98.6011 28.6768 98.6309 28.7711 98.6309C28.8654 98.6309 28.9573 98.6011 29.0338 98.546C29.1102 98.4908 29.1674 98.413 29.1973 98.3235L30.5072 94.3938C30.5951 94.1292 30.7435 93.8886 30.9406 93.6913C31.1377 93.4939 31.3781 93.3452 31.6427 93.2569L35.5766 91.947C35.666 91.9173 35.7439 91.8599 35.799 91.7835C35.8542 91.7071 35.8838 91.6151 35.8838 91.5208C35.8838 91.4265 35.8542 91.3346 35.799 91.2581C35.7439 91.1817 35.666 91.1245 35.5766 91.0947L31.6441 89.7833C31.3795 89.6955 31.1388 89.547 30.9416 89.3499C30.7442 89.1528 30.5955 88.9124 30.5072 88.6478L29.1973 84.7139C29.1674 84.6245 29.1102 84.5467 29.0338 84.4916C28.9573 84.4363 28.8654 84.4067 28.7711 84.4067C28.6768 84.4067 28.5849 84.4363 28.5084 84.4916C28.432 84.5467 28.3748 84.6245 28.3449 84.7139L26.7491 89.5002Z" fill="white"/>
<g clip-path="url(#clip0_3_2266)">
<path d="M66.6663 1.43066V4.82858C66.6663 6.67401 68.1623 8.17004 70.0077 8.17004H74.1433C75.9888 8.17004 77.4848 6.67401 77.4848 4.82858V1.43066" stroke="#121211" stroke-width="4.185" stroke-miterlimit="10" stroke-linecap="round" stroke-linejoin="round"/>
<path d="M43.2754 46.9466V6.92538C43.2754 3.89099 45.7357 1.43066 48.772 1.43066H95.3789C97.8659 1.43066 99.9658 3.08232 100.643 5.34811M100.874 31.0995V90.7251C100.874 93.7595 98.4133 96.2198 95.3789 96.2198H48.772C45.7357 96.2198 43.2754 93.7595 43.2754 90.7251V53.6219M100.874 89.4805H43.276M79.7454 28.9615L77.3251 34.0252C77.2032 34.2803 77.1634 34.567 77.2112 34.8458C77.259 35.1245 77.3921 35.3815 77.5921 35.5815L79.3334 37.3228C79.5337 37.5229 79.7911 37.656 80.0701 37.7038C80.3492 37.7517 80.6362 37.7118 80.8916 37.5898L85.9534 35.1695" stroke="#121211" stroke-width="4.185" stroke-miterlimit="10" stroke-linecap="round" stroke-linejoin="round"/>
<path d="M86.5577 13.7896C81.4483 13.8563 75.5321 16.2766 70.0736 21.283C69.4843 21.8228 69.8218 22.8126 70.6191 22.8718C73.6878 23.0949 76.295 23.9379 78.3796 25.1185M89.7979 36.5389C90.9804 38.6235 91.8234 41.2307 92.0466 44.2975C92.1038 45.0967 93.0936 45.4323 93.6353 44.843C98.6417 39.3864 101.062 33.4664 101.129 28.3589" stroke="#121211" stroke-width="4.185" stroke-miterlimit="10" stroke-linecap="round" stroke-linejoin="round"/>
<path d="M96.2392 23.8023C98.2406 22.9733 99.191 20.6788 98.362 18.6774C97.533 16.676 95.2385 15.7256 93.2371 16.5546C91.2357 17.3836 90.2853 19.6781 91.1143 21.6795C91.9433 23.6809 94.2378 24.6313 96.2392 23.8023Z" stroke="#121211" stroke-width="4.185" stroke-miterlimit="10" stroke-linecap="round" stroke-linejoin="round"/>
<path d="M106.216 21.7302C109.306 16.5645 110.936 10.8714 111.07 5.30235C111.075 5.10992 111.041 4.91851 110.969 4.73975C110.898 4.56099 110.791 4.39862 110.655 4.26251C110.519 4.1264 110.356 4.01939 110.177 3.94798C109.999 3.87657 109.807 3.84226 109.615 3.84713C101.34 4.04625 92.7925 7.54716 86.1073 14.2324C82.7242 17.6154 79.9704 21.6639 77.9573 26.0005C77.848 26.2342 77.8132 26.4959 77.8577 26.75C77.9021 27.0041 78.0236 27.2384 78.2056 27.4212L87.4959 36.7115C87.6787 36.8936 87.913 37.015 88.1671 37.0594C88.4213 37.1038 88.6829 37.0691 88.9166 36.9598C93.2533 34.9468 97.3017 32.1929 100.685 28.8099C101.279 28.2154 101.854 27.601 102.407 26.9677" stroke="#121211" stroke-width="4.185" stroke-miterlimit="10" stroke-linecap="round" stroke-linejoin="round"/>
<path d="M95.5987 7.38379C98.1924 8.51287 100.602 10.1226 102.698 12.2186C104.794 14.3146 106.403 16.7239 107.532 19.3175M71.7237 81.7652L66.7592 75.1777C66.3644 74.6532 65.8628 74.2202 65.2887 73.9075L61.8557 72.0365C61.1672 71.6607 60.3585 72.2711 60.5302 73.0359L61.3808 76.8503C61.5238 77.4892 61.8023 78.0919 62.1971 78.6145L66.9461 84.9179M65.8939 44.6556C63.8251 46.7243 62.5522 49.2066 62.1502 51.5756C62.0319 52.2721 62.644 52.8841 63.3405 52.7659C65.7094 52.3638 68.1917 51.0911 70.2605 49.0222C72.3292 46.9534 73.6021 44.4711 74.0042 42.1022C74.1224 41.4057 73.5104 40.7936 72.8139 40.9119C70.4449 41.3139 67.9626 42.5868 65.8939 44.6556Z" stroke="#121211" stroke-width="4.185" stroke-miterlimit="10" stroke-linecap="round" stroke-linejoin="round"/>
<path d="M77.8164 89.4803V87.4949C77.8164 84.3238 75.2457 81.7528 72.0743 81.7528C68.9032 81.7528 66.3322 84.3236 66.3322 87.4949V89.4803M95.3385 76.9258C92.434 66.8175 83.1172 59.4219 72.0745 59.4219M72.0745 59.4219C61.0319 59.4219 51.7151 66.8175 48.8105 76.9258M72.0745 59.4219L72.0743 62.4639M62.8123 61.2643L63.9762 64.0747M54.96 66.5108L57.1112 68.662M49.7134 74.3631L52.5239 75.5273M94.4354 74.3631L91.6249 75.5273M89.1888 66.5108L87.0377 68.662M81.3366 61.2643L80.1724 64.0747" stroke="#121211" stroke-width="4.185" stroke-miterlimit="10" stroke-linecap="round" stroke-linejoin="round"/>
</g>
<defs>
<clipPath id="clip0_3_2266">
<rect width="97.65" height="97.65" fill="white" transform="translate(28.3477)"/>
</clipPath>
</defs>
</svg>
